<svg width="16" height="16" viewBox="0 0 16 16" fill="none" xmlns="http://www.w3.org/2000/svg">
<path d="M8.00004 9.33334C8.1319 9.33334 8.26079 9.29424 8.37042 9.22099C8.48005 9.14774 8.5655 9.04362 8.61596 8.9218C8.66642 8.79998 8.67962 8.66594 8.6539 8.53662C8.62817 8.4073 8.56468 8.28851 8.47145 8.19527C8.37821 8.10204 8.25942 8.03854 8.1301 8.01282C8.00078 7.9871 7.86674 8.0003 7.74492 8.05076C7.6231 8.10122 7.51898 8.18666 7.44573 8.2963C7.37247 8.40593 7.33337 8.53482 7.33337 8.66668C7.33337 8.84349 7.40361 9.01306 7.52864 9.13808C7.65366 9.26311 7.82323 9.33334 8.00004 9.33334ZM11.3334 9.33334C11.4652 9.33334 11.5941 9.29424 11.7038 9.22099C11.8134 9.14774 11.8988 9.04362 11.9493 8.9218C11.9998 8.79998 12.013 8.66594 11.9872 8.53662C11.9615 8.4073 11.898 8.28851 11.8048 8.19527C11.7115 8.10204 11.5928 8.03854 11.4634 8.01282C11.3341 7.9871 11.2001 8.0003 11.0783 8.05076C10.9564 8.10122 10.8523 8.18666 10.7791 8.2963C10.7058 8.40593 10.6667 8.53482 10.6667 8.66668C10.6667 8.84349 10.7369 9.01306 10.862 9.13808C10.987 9.26311 11.1566 9.33334 11.3334 9.33334ZM8.00004 12C8.1319 12 8.26079 11.9609 8.37042 11.8877C8.48005 11.8144 8.5655 11.7103 8.61596 11.5885C8.66642 11.4666 8.67962 11.3326 8.6539 11.2033C8.62817 11.074 8.56468 10.9552 8.47145 10.8619C8.37821 10.7687 8.25942 10.7052 8.1301 10.6795C8.00078 10.6538 7.86674 10.667 7.74492 10.7174C7.6231 10.7679 7.51898 10.8533 7.44573 10.963C7.37247 11.0726 7.33337 11.2015 7.33337 11.3333C7.33337 11.5102 7.40361 11.6797 7.52864 11.8047C7.65366 11.9298 7.82323 12 8.00004 12ZM11.3334 12C11.4652 12 11.5941 11.9609 11.7038 11.8877C11.8134 11.8144 11.8988 11.7103 11.9493 11.5885C11.9998 11.4666 12.013 11.3326 11.9872 11.2033C11.9615 11.074 11.898 10.9552 11.8048 10.8619C11.7115 10.7687 11.5928 10.7052 11.4634 10.6795C11.3341 10.6538 11.2001 10.667 11.0783 10.7174C10.9564 10.7679 10.8523 10.8533 10.7791 10.963C10.7058 11.0726 10.6667 11.2015 10.6667 11.3333C10.6667 11.5102 10.7369 11.6797 10.862 11.8047C10.987 11.9298 11.1566 12 11.3334 12ZM4.66671 9.33334C4.79856 9.33334 4.92745 9.29424 5.03709 9.22099C5.14672 9.14774 5.23217 9.04362 5.28263 8.9218C5.33309 8.79998 5.34629 8.66594 5.32056 8.53662C5.29484 8.4073 5.23135 8.28851 5.13811 8.19527C5.04488 8.10204 4.92609 8.03854 4.79677 8.01282C4.66745 7.9871 4.5334 8.0003 4.41159 8.05076C4.28977 8.10122 4.18565 8.18666 4.11239 8.2963C4.03914 8.40593 4.00004 8.53482 4.00004 8.66668C4.00004 8.84349 4.07028 9.01306 4.1953 9.13808C4.32033 9.26311 4.4899 9.33334 4.66671 9.33334ZM12.6667 2.66668H12V2.00001C12 1.8232 11.9298 1.65363 11.8048 1.52861C11.6798 1.40358 11.5102 1.33334 11.3334 1.33334C11.1566 1.33334 10.987 1.40358 10.862 1.52861C10.7369 1.65363 10.6667 1.8232 10.6667 2.00001V2.66668H5.33337V2.00001C5.33337 1.8232 5.26314 1.65363 5.13811 1.52861C5.01309 1.40358 4.84352 1.33334 4.66671 1.33334C4.4899 1.33334 4.32033 1.40358 4.1953 1.52861C4.07028 1.65363 4.00004 1.8232 4.00004 2.00001V2.66668H3.33337C2.80294 2.66668 2.29423 2.87739 1.91916 3.25246C1.54409 3.62754 1.33337 4.13624 1.33337 4.66668V12.6667C1.33337 13.1971 1.54409 13.7058 1.91916 14.0809C2.29423 14.456 2.80294 14.6667 3.33337 14.6667H12.6667C13.1971 14.6667 13.7058 14.456 14.0809 14.0809C14.456 13.7058 14.6667 13.1971 14.6667 12.6667V4.66668C14.6667 4.13624 14.456 3.62754 14.0809 3.25246C13.7058 2.87739 13.1971 2.66668 12.6667 2.66668ZM13.3334 12.6667C13.3334 12.8435 13.2631 13.0131 13.1381 13.1381C13.0131 13.2631 12.8435 13.3333 12.6667 13.3333H3.33337C3.15656 13.3333 2.98699 13.2631 2.86197 13.1381C2.73695 13.0131 2.66671 12.8435 2.66671 12.6667V6.66668H13.3334V12.6667ZM13.3334 5.33334H2.66671V4.66668C2.66671 4.48987 2.73695 4.3203 2.86197 4.19527C2.98699 4.07025 3.15656 4.00001 3.33337 4.00001H12.6667C12.8435 4.00001 13.0131 4.07025 13.1381 4.19527C13.2631 4.3203 13.3334 4.48987 13.3334 4.66668V5.33334ZM4.66671 12C4.79856 12 4.92745 11.9609 5.03709 11.8877C5.14672 11.8144 5.23217 11.7103 5.28263 11.5885C5.33309 11.4666 5.34629 11.3326 5.32056 11.2033C5.29484 11.074 5.23135 10.9552 5.13811 10.8619C5.04488 10.7687 4.92609 10.7052 4.79677 10.6795C4.66745 10.6538 4.5334 10.667 4.41159 10.7174C4.28977 10.7679 4.18565 10.8533 4.11239 10.963C4.03914 11.0726 4.00004 11.2015 4.00004 11.3333C4.00004 11.5102 4.07028 11.6797 4.1953 11.8047C4.32033 11.9298 4.4899 12 4.66671 12Z" fill="#555555"/>
</svg>
