<svg width="16" height="16" viewBox="0 0 16 16" fill="none" xmlns="http://www.w3.org/2000/svg">
<path d="M8.00004 1.33331C6.6815 1.33331 5.39257 1.72431 4.29624 2.45685C3.19991 3.18939 2.34543 4.23058 1.84085 5.44876C1.33626 6.66693 1.20424 8.00738 1.46148 9.30058C1.71871 10.5938 2.35365 11.7817 3.286 12.714C4.21835 13.6464 5.40624 14.2813 6.69944 14.5385C7.99265 14.7958 9.33309 14.6638 10.5513 14.1592C11.7694 13.6546 12.8106 12.8001 13.5432 11.7038C14.2757 10.6075 14.6667 9.31852 14.6667 7.99998C14.6667 7.1245 14.4943 6.25759 14.1592 5.44876C13.8242 4.63992 13.3331 3.90499 12.7141 3.28593C12.095 2.66688 11.3601 2.17581 10.5513 1.84078C9.74243 1.50575 8.87552 1.33331 8.00004 1.33331ZM8.00004 13.3333C6.94521 13.3333 5.91406 13.0205 5.037 12.4345C4.15994 11.8484 3.47635 11.0155 3.07269 10.041C2.66902 9.06642 2.5634 7.99406 2.76919 6.9595C2.97498 5.92493 3.48293 4.97462 4.22881 4.22874C4.97469 3.48286 5.925 2.97491 6.95956 2.76912C7.99413 2.56334 9.06648 2.66895 10.041 3.07262C11.0156 3.47629 11.8485 4.15988 12.4345 5.03694C13.0206 5.914 13.3334 6.94515 13.3334 7.99998C13.3334 9.41447 12.7715 10.771 11.7713 11.7712C10.7711 12.7714 9.41453 13.3333 8.00004 13.3333ZM8.00004 3.99998C7.82323 3.99998 7.65366 4.07022 7.52864 4.19524C7.40362 4.32027 7.33338 4.48984 7.33338 4.66665V7.61331L5.93338 8.41998C5.80495 8.49276 5.70431 8.6061 5.64723 8.74223C5.59016 8.87837 5.57988 9.02959 5.61801 9.1722C5.65614 9.31481 5.74052 9.44072 5.85792 9.53021C5.97532 9.61969 6.1191 9.66768 6.26671 9.66665C6.38349 9.66745 6.49844 9.63757 6.60004 9.57998L8.33338 8.57998L8.39338 8.51998L8.50004 8.43331C8.52611 8.40031 8.54847 8.36454 8.56671 8.32665C8.58844 8.29086 8.60632 8.25287 8.62004 8.21331C8.63818 8.17092 8.64943 8.12591 8.65338 8.07998L8.66671 7.99998V4.66665C8.66671 4.48984 8.59647 4.32027 8.47145 4.19524C8.34642 4.07022 8.17686 3.99998 8.00004 3.99998Z" fill="#555555"/>
</svg>
