<svg width="22" height="20" viewBox="0 0 22 20" fill="none" xmlns="http://www.w3.org/2000/svg">
<path d="M19 12C18.7348 12 18.4804 12.1054 18.2929 12.2929C18.1054 12.4804 18 12.7348 18 13V17C18 17.2652 17.8946 17.5196 17.7071 17.7071C17.5196 17.8946 17.2652 18 17 18H3C2.73478 18 2.48043 17.8946 2.29289 17.7071C2.10536 17.5196 2 17.2652 2 17V7.41L7.88 13.3C8.4425 13.8618 9.205 14.1774 10 14.1774C10.795 14.1774 11.5575 13.8618 12.12 13.3L13.76 11.66C13.9483 11.4717 14.0541 11.2163 14.0541 10.95C14.0541 10.6837 13.9483 10.4283 13.76 10.24C13.5717 10.0517 13.3163 9.94591 13.05 9.94591C12.7837 9.94591 12.5283 10.0517 12.34 10.24L10.7 11.88C10.5131 12.0632 10.2618 12.1659 10 12.1659C9.73825 12.1659 9.48693 12.0632 9.3 11.88L3.41 6H10C10.2652 6 10.5196 5.89464 10.7071 5.70711C10.8946 5.51957 11 5.26522 11 5C11 4.73478 10.8946 4.48043 10.7071 4.29289C10.5196 4.10536 10.2652 4 10 4H3C2.20435 4 1.44129 4.31607 0.87868 4.87868C0.316071 5.44129 0 6.20435 0 7V17C0 17.7956 0.316071 18.5587 0.87868 19.1213C1.44129 19.6839 2.20435 20 3 20H17C17.7956 20 18.5587 19.6839 19.1213 19.1213C19.6839 18.5587 20 17.7956 20 17V13C20 12.7348 19.8946 12.4804 19.7071 12.2929C19.5196 12.1054 19.2652 12 19 12ZM20.71 5.29C20.617 5.19627 20.5064 5.12188 20.3846 5.07111C20.2627 5.02034 20.132 4.9942 20 4.9942C19.868 4.9942 19.7373 5.02034 19.6154 5.07111C19.4936 5.12188 19.383 5.19627 19.29 5.29L18 6.59V1C18 0.734784 17.8946 0.48043 17.7071 0.292893C17.5196 0.105357 17.2652 0 17 0C16.7348 0 16.4804 0.105357 16.2929 0.292893C16.1054 0.48043 16 0.734784 16 1V6.59L14.71 5.29C14.6168 5.19676 14.5061 5.1228 14.3842 5.07234C14.2624 5.02188 14.1319 4.99591 14 4.99591C13.7337 4.99591 13.4783 5.1017 13.29 5.29C13.1968 5.38324 13.1228 5.49393 13.0723 5.61575C13.0219 5.73757 12.9959 5.86814 12.9959 6C12.9959 6.2663 13.1017 6.5217 13.29 6.71L16.29 9.71C16.3851 9.80104 16.4972 9.87241 16.62 9.92C16.7397 9.97291 16.8691 10.0002 17 10.0002C17.1309 10.0002 17.2603 9.97291 17.38 9.92C17.5028 9.87241 17.6149 9.80104 17.71 9.71L20.71 6.71C20.8037 6.61704 20.8781 6.50644 20.9289 6.38458C20.9797 6.26272 21.0058 6.13201 21.0058 6C21.0058 5.86799 20.9797 5.73728 20.9289 5.61542C20.8781 5.49356 20.8037 5.38296 20.71 5.29Z" fill="#86C2BB"/>
</svg>
