<svg width="16" height="16" viewBox="0 0 16 16" fill="none" xmlns="http://www.w3.org/2000/svg">
<path d="M13.12 4.58665C12.4406 4.22961 11.6484 4.15303 10.9133 4.37331C10.8775 3.62563 10.5553 2.92041 10.0135 2.40392C9.47167 1.88743 8.75184 1.5993 8.0033 1.5993C7.25476 1.5993 6.53493 1.88743 5.99313 2.40392C5.45132 2.92041 5.1291 3.62563 5.0933 4.37331C4.36016 4.15252 3.57022 4.22173 2.88664 4.56665C2.38323 4.83124 1.96828 5.23738 1.69294 5.73499C1.41761 6.23259 1.29393 6.79991 1.33717 7.36696C1.38041 7.93402 1.58867 8.47602 1.93627 8.92613C2.28386 9.37624 2.7556 9.71477 3.2933 9.89998C2.95009 10.3883 2.76403 10.9698 2.75997 11.5666C2.76293 11.7342 2.77853 11.9014 2.80664 12.0666C2.9189 12.7437 3.26817 13.3588 3.79206 13.802C4.31596 14.2453 4.98036 14.488 5.66664 14.4866C5.80869 14.4964 5.95125 14.4964 6.0933 14.4866C6.85532 14.3666 7.53988 13.9525 7.99997 13.3333C8.46485 13.9425 9.14876 14.3466 9.90663 14.46C10.0487 14.4697 10.1912 14.4697 10.3333 14.46C10.8654 14.4594 11.3871 14.3127 11.8416 14.036C12.2961 13.7593 12.6659 13.3631 12.9107 12.8906C13.1555 12.4182 13.2659 11.8876 13.23 11.3568C13.194 10.8259 13.013 10.3151 12.7066 9.87998C13.247 9.69798 13.7218 9.36108 14.0721 8.91123C14.4224 8.46137 14.6327 7.91843 14.6767 7.34998C14.7208 6.78153 14.5967 6.21267 14.3199 5.71422C14.0431 5.21577 13.6258 4.80973 13.12 4.54665V4.58665ZM6.8933 3.29331C7.19113 3.00808 7.58759 2.84886 7.99997 2.84886C8.41235 2.84886 8.80881 3.00808 9.10663 3.29331C9.33402 3.52104 9.48843 3.81133 9.55017 4.12716C9.61191 4.44299 9.57819 4.77006 9.4533 5.06665L9.27997 5.45998L8.83997 5.84665C8.56945 5.75379 8.28595 5.70429 7.99997 5.69998C7.63035 5.70033 7.26484 5.77752 6.92663 5.92665L6.5533 5.06665C6.42392 4.77137 6.38715 4.44378 6.44786 4.12717C6.50856 3.81055 6.66388 3.5198 6.8933 3.29331ZM2.82664 7.85331C2.67781 7.52582 2.64518 7.15735 2.73416 6.80881C2.82314 6.46027 3.02838 6.15252 3.31597 5.93644C3.60356 5.72036 3.95628 5.60888 4.31581 5.62043C4.67535 5.63199 5.02018 5.76588 5.2933 5.99998L5.61997 6.28665L5.8533 6.81998C5.51933 7.26682 5.33711 7.8088 5.3333 8.36665C5.32539 8.46649 5.32539 8.5668 5.3333 8.66665H4.96663L4.40664 8.71998C4.08633 8.75378 3.76335 8.68889 3.48096 8.53399C3.19857 8.37909 2.97027 8.14159 2.82664 7.85331ZM7.22663 11.9066C7.14638 12.2625 6.94593 12.5799 6.65905 12.8053C6.37216 13.0307 6.01638 13.1503 5.6516 13.144C5.28683 13.1378 4.93535 13.006 4.65638 12.7709C4.3774 12.5358 4.18796 12.2117 4.11997 11.8533C4.11358 11.7601 4.11358 11.6665 4.11997 11.5733C4.12238 11.3023 4.19565 11.0367 4.33248 10.8028C4.46931 10.5689 4.66495 10.3749 4.89997 10.24L5.23997 9.99998L5.84664 9.93331C6.229 10.4653 6.7938 10.8378 7.4333 10.98L7.22663 11.9066ZM7.99997 9.69998C7.73626 9.69998 7.47847 9.62178 7.25921 9.47527C7.03994 9.32876 6.86905 9.12053 6.76813 8.87689C6.66721 8.63326 6.64081 8.36517 6.69225 8.10653C6.7437 7.84789 6.87069 7.61031 7.05716 7.42384C7.24363 7.23737 7.48121 7.11038 7.73985 7.05893C7.99849 7.00749 8.26658 7.03389 8.51021 7.13481C8.75385 7.23572 8.96209 7.40662 9.10859 7.62589C9.2551 7.84515 9.3333 8.10294 9.3333 8.36665C9.3333 8.72027 9.19282 9.05941 8.94278 9.30946C8.69273 9.5595 8.35359 9.69998 7.99997 9.69998ZM11.88 11.8466C11.8112 12.2534 11.5854 12.6169 11.2512 12.8588C10.917 13.1007 10.5012 13.2017 10.0933 13.14C9.77189 13.0947 9.47197 12.9523 9.23369 12.7319C8.99541 12.5115 8.83013 12.2236 8.75997 11.9066L8.66663 11.5066L8.80663 10.8933C9.42164 10.693 9.94289 10.276 10.2733 9.71998L10.6066 9.91998H10.6666L11.1066 10.18C11.3925 10.3432 11.6205 10.5914 11.7591 10.89C11.8977 11.1886 11.9399 11.5229 11.88 11.8466ZM13.1733 7.84665C13.0422 8.11163 12.8399 8.33491 12.5891 8.4915C12.3384 8.64809 12.049 8.73182 11.7533 8.73331H11.5933L11.1666 8.66665L10.6666 8.39331C10.6657 7.74512 10.4287 7.11946 9.99997 6.63331L10.2866 6.38665L10.7066 5.99998C10.9805 5.75647 11.3306 5.61576 11.6968 5.60193C12.063 5.58811 12.4227 5.70202 12.7142 5.92418C13.0057 6.14634 13.2108 6.46292 13.2946 6.81971C13.3784 7.17651 13.3355 7.55132 13.1733 7.87998V7.84665Z" fill="#555555"/>
</svg>
