<svg width="60" height="60" viewBox="0 0 60 60" fill="none" xmlns="http://www.w3.org/2000/svg">
<path d="M30 59.703C46.4045 59.703 59.703 46.4045 59.703 30C59.703 13.5955 46.4045 0.297058 30 0.297058C13.5955 0.297058 0.297028 13.5955 0.297028 30C0.297028 46.4045 13.5955 59.703 30 59.703Z" fill="#EA99A3"/>
<path d="M11.0317 20.4904H12.4277V27.2567H16.4804V28.4626H11.0317V20.4904Z" fill="white"/>
<path d="M22.0966 27.1783C22.0966 27.3351 22.1168 27.4468 22.1584 27.5133C22.1988 27.5798 22.2796 27.6143 22.3984 27.6143C22.4352 27.6143 22.4804 27.6143 22.5326 27.6143C22.5849 27.6143 22.6443 27.6072 22.7109 27.5917V28.4733C22.6657 28.4876 22.6087 28.5054 22.5374 28.5232C22.4661 28.5422 22.3936 28.5589 22.32 28.5731C22.2451 28.5874 22.1715 28.5993 22.0966 28.6064C22.0218 28.6135 21.9588 28.6171 21.9065 28.6171C21.6463 28.6171 21.4301 28.5648 21.259 28.4602C21.0879 28.3557 20.9762 28.1739 20.9239 27.9125C20.6709 28.1585 20.3596 28.3367 19.9913 28.4484C19.6229 28.56 19.2677 28.6159 18.9255 28.6159C18.6653 28.6159 18.4158 28.5802 18.177 28.5101C17.9382 28.4389 17.7279 28.3355 17.5461 28.1977C17.3631 28.0598 17.2182 27.8852 17.1101 27.6725C17.002 27.4598 16.9485 27.2127 16.9485 26.9299C16.9485 26.5723 17.0138 26.2824 17.1445 26.0591C17.2752 25.8357 17.4463 25.661 17.6578 25.5339C17.8705 25.408 18.1081 25.3165 18.3719 25.2606C18.6356 25.2048 18.9018 25.162 19.1703 25.1323C19.4008 25.0872 19.6206 25.0563 19.8285 25.0373C20.0364 25.0183 20.2206 24.9874 20.381 24.9422C20.5414 24.8971 20.6673 24.8293 20.76 24.7355C20.8526 24.6428 20.899 24.5026 20.899 24.3173C20.899 24.1533 20.8598 24.0202 20.7814 23.9157C20.7029 23.8111 20.6067 23.7315 20.4915 23.6757C20.3762 23.6198 20.2479 23.583 20.1065 23.564C19.9651 23.545 19.8309 23.5367 19.7049 23.5367C19.3473 23.5367 19.0538 23.6115 18.8233 23.76C18.5928 23.9086 18.4621 24.1391 18.4324 24.4527H17.16C17.1825 24.0808 17.2717 23.7719 17.4285 23.526C17.5853 23.28 17.7837 23.0828 18.0261 22.9343C18.2685 22.7858 18.5418 22.6812 18.8471 22.6218C19.1524 22.5624 19.4649 22.5327 19.7845 22.5327C20.0673 22.5327 20.3465 22.5624 20.6222 22.6218C20.8978 22.6812 21.1449 22.7787 21.3647 22.9117C21.5845 23.046 21.7616 23.2183 21.8946 23.4309C22.0289 23.6424 22.0954 23.9014 22.0954 24.2068V27.1783H22.0966ZM20.8229 25.5707C20.6293 25.6979 20.3917 25.7739 20.1089 25.8C19.8261 25.8262 19.5433 25.8654 19.2606 25.9177C19.1263 25.9402 18.9968 25.9711 18.8697 26.0127C18.7425 26.0531 18.6309 26.1101 18.5346 26.1802C18.4372 26.2515 18.3612 26.3442 18.3053 26.4594C18.2495 26.5747 18.2221 26.7149 18.2221 26.8777C18.2221 27.0191 18.2625 27.1379 18.3445 27.2353C18.4265 27.3327 18.5251 27.4088 18.6404 27.4646C18.7556 27.5204 18.8827 27.5596 19.0206 27.5822C19.1584 27.6048 19.2831 27.6155 19.3948 27.6155C19.5362 27.6155 19.6883 27.5965 19.8522 27.5596C20.0162 27.5228 20.1707 27.4587 20.3156 27.3695C20.4606 27.2804 20.5818 27.1664 20.678 27.0286C20.7742 26.8907 20.8229 26.722 20.8229 26.5212V25.5707Z" fill="white"/>
<path d="M22.8891 22.6896H23.8491V20.9585H25.1216V22.6896H26.2717V23.6389H25.1216V26.7209C25.1216 26.8551 25.1275 26.9704 25.1382 27.0666C25.1489 27.164 25.175 27.2448 25.2166 27.3126C25.257 27.3791 25.3188 27.4302 25.4008 27.4634C25.4828 27.4967 25.5944 27.5134 25.7358 27.5134C25.8249 27.5134 25.9141 27.5122 26.0043 27.5074C26.0935 27.5038 26.1826 27.4908 26.2729 27.4682V28.4508C26.1315 28.465 25.9937 28.4805 25.8594 28.4959C25.7251 28.5102 25.5873 28.5185 25.4459 28.5185C25.1109 28.5185 24.8412 28.4864 24.6368 28.4234C24.4325 28.3605 24.2721 28.2666 24.1568 28.1442C24.0416 28.0219 23.9632 27.8674 23.9228 27.6809C23.8824 27.4955 23.8574 27.2829 23.8503 27.044V23.6389H22.8903V22.6896H22.8891Z" fill="white"/>
<path d="M27.221 20.4904H28.4935V21.6963H27.221V20.4904ZM27.221 22.6896H28.4935V28.4614H27.221V22.6896Z" fill="white"/>
<path d="M29.8776 22.6896H31.0836V23.5379L31.1061 23.5605C31.2998 23.2409 31.5529 22.989 31.8653 22.8072C32.1778 22.6254 32.5248 22.5339 32.9038 22.5339C33.5358 22.5339 34.0349 22.6979 34.3996 23.0246C34.7644 23.3525 34.9461 23.8432 34.9461 24.4979V28.4615H33.6737V24.8329C33.6582 24.3791 33.562 24.05 33.3838 23.8444C33.2055 23.6401 32.9263 23.5379 32.5461 23.5379C32.3299 23.5379 32.1362 23.5771 31.9651 23.6555C31.7941 23.7339 31.6491 23.8421 31.5291 23.9799C31.4103 24.1177 31.3176 24.2793 31.2499 24.4658C31.1834 24.6524 31.1489 24.8496 31.1489 25.0575V28.4626H29.8764V22.6896H29.8776Z" fill="white"/>
<path d="M41.122 27.1783C41.122 27.3351 41.1422 27.4468 41.1837 27.5133C41.2241 27.5798 41.3049 27.6143 41.4237 27.6143C41.4606 27.6143 41.5057 27.6143 41.558 27.6143C41.6103 27.6143 41.6697 27.6072 41.7362 27.5917V28.4733C41.6911 28.4876 41.634 28.5054 41.5628 28.5232C41.4915 28.5422 41.419 28.5589 41.3453 28.5731C41.2705 28.5874 41.1968 28.5993 41.122 28.6064C41.0471 28.6135 40.9841 28.6171 40.9319 28.6171C40.6717 28.6171 40.4554 28.5648 40.2843 28.4602C40.1133 28.3557 40.0016 28.1739 39.9493 27.9125C39.6962 28.1585 39.3849 28.3367 39.0166 28.4484C38.6483 28.56 38.2931 28.6159 37.9509 28.6159C37.6907 28.6159 37.4412 28.5802 37.2024 28.5101C36.9635 28.4389 36.7533 28.3355 36.5715 28.1977C36.3885 28.0598 36.2436 27.8852 36.1354 27.6725C36.0273 27.4598 35.9738 27.2127 35.9738 26.9299C35.9738 26.5723 36.0392 26.2824 36.1687 26.0591C36.2994 25.8357 36.4705 25.661 36.682 25.5339C36.8946 25.408 37.1323 25.3165 37.396 25.2606C37.6598 25.2048 37.9259 25.162 38.1944 25.1323C38.4249 25.0872 38.6447 25.0563 38.8527 25.0373C39.0606 25.0183 39.2447 24.9874 39.4051 24.9422C39.5655 24.8971 39.6915 24.8293 39.7841 24.7355C39.8768 24.6428 39.9232 24.5026 39.9232 24.3173C39.9232 24.1533 39.8839 24.0202 39.8055 23.9157C39.7271 23.8111 39.6309 23.7315 39.5156 23.6757C39.4004 23.6198 39.2721 23.583 39.1307 23.564C38.9893 23.545 38.855 23.5367 38.7291 23.5367C38.3715 23.5367 38.078 23.6115 37.8475 23.76C37.617 23.9086 37.4863 24.1391 37.4566 24.4527H36.1841C36.2067 24.0808 36.2958 23.7719 36.4515 23.526C36.6083 23.28 36.8067 23.0828 37.0491 22.9343C37.2903 22.7858 37.5647 22.6812 37.8701 22.6218C38.1754 22.5624 38.4879 22.5327 38.8075 22.5327C39.0903 22.5327 39.3695 22.5624 39.6451 22.6218C39.9208 22.6812 40.1679 22.7787 40.3877 22.9117C40.6075 23.046 40.7845 23.2183 40.9176 23.4309C41.0519 23.6424 41.1184 23.9014 41.1184 24.2068V27.1783H41.122ZM39.8483 25.5707C39.6546 25.6979 39.417 25.7739 39.1342 25.8C38.8515 25.8262 38.5687 25.8654 38.2859 25.9177C38.1517 25.9402 38.0222 25.9711 37.895 26.0127C37.7679 26.0531 37.6562 26.1101 37.56 26.1802C37.4637 26.2515 37.3865 26.3442 37.3307 26.4594C37.2748 26.5747 37.2475 26.7149 37.2475 26.8777C37.2475 27.0191 37.2879 27.1379 37.3699 27.2353C37.4519 27.3327 37.5505 27.4088 37.6657 27.4646C37.781 27.5204 37.9069 27.5596 38.0447 27.5822C38.1826 27.6048 38.3073 27.6155 38.419 27.6155C38.5604 27.6155 38.7125 27.5965 38.8764 27.5596C39.0404 27.5228 39.1948 27.4587 39.3398 27.3695C39.4847 27.2804 39.6059 27.1664 39.7022 27.0286C39.7984 26.8907 39.8471 26.722 39.8471 26.5212V25.5707H39.8483Z" fill="white"/>
<path d="M43.4554 26.6092C43.4923 26.9811 43.6336 27.2424 43.8796 27.391C44.1255 27.5395 44.419 27.6143 44.7612 27.6143C44.88 27.6143 45.0166 27.6048 45.1687 27.587C45.3208 27.568 45.4645 27.5335 45.5988 27.4813C45.7331 27.429 45.8424 27.3529 45.9279 27.252C46.0134 27.151 46.0527 27.0191 46.0455 26.8551C46.0384 26.6912 45.979 26.5581 45.8673 26.4535C45.7556 26.349 45.6119 26.2658 45.4372 26.2028C45.2626 26.1399 45.063 26.0852 44.8396 26.0413C44.6162 25.9961 44.3893 25.9486 44.1588 25.8963C43.92 25.844 43.6919 25.7811 43.4721 25.7062C43.2523 25.6314 43.055 25.5316 42.8804 25.4044C42.7057 25.2785 42.5655 25.1157 42.4622 24.9185C42.3576 24.7213 42.3053 24.4777 42.3053 24.1866C42.3053 23.8741 42.3814 23.6116 42.5346 23.3989C42.6867 23.1874 42.8804 23.0163 43.1156 22.8856C43.3497 22.7549 43.6111 22.6646 43.8974 22.6124C44.1837 22.5601 44.457 22.5339 44.7184 22.5339C45.0154 22.5339 45.3006 22.566 45.5727 22.629C45.8447 22.692 46.0895 22.7941 46.3093 22.9355C46.5291 23.0769 46.7109 23.2611 46.857 23.488C47.002 23.7149 47.0934 23.9882 47.1303 24.309H45.802C45.7426 24.0036 45.6024 23.7993 45.3837 23.6947C45.1639 23.5902 44.9133 23.5379 44.6305 23.5379C44.5414 23.5379 44.4356 23.545 44.3121 23.5605C44.1897 23.5759 44.0733 23.6032 43.9663 23.6436C43.8582 23.6852 43.7667 23.7446 43.6931 23.8219C43.6182 23.9003 43.5814 24.0024 43.5814 24.1284C43.5814 24.2852 43.6348 24.4112 43.743 24.5086C43.8511 24.606 43.9925 24.6856 44.1671 24.7486C44.3418 24.8116 44.5414 24.8662 44.7647 24.9102C44.9881 24.9553 45.2186 25.0028 45.4574 25.0551C45.6879 25.1074 45.9148 25.1704 46.1382 25.2452C46.3616 25.3201 46.56 25.4199 46.7358 25.547C46.9105 25.6741 47.0519 25.8333 47.16 26.027C47.2681 26.2207 47.3216 26.4583 47.3216 26.7411C47.3216 27.0832 47.2432 27.3743 47.0875 27.612C46.9307 27.8496 46.7287 28.0432 46.4792 28.1929C46.2297 28.3415 45.9529 28.4496 45.6475 28.5173C45.3422 28.5838 45.0404 28.6183 44.7434 28.6183C44.3786 28.6183 44.0412 28.5779 43.7323 28.4959C43.4234 28.4139 43.1548 28.2892 42.9279 28.1217C42.701 27.9541 42.5216 27.7462 42.3921 27.4967C42.2614 27.2472 42.1925 26.9514 42.1853 26.6092H43.4554Z" fill="white"/>
<path d="M10.8867 32.0911H12.1592V33.2971H10.8867V32.0911ZM10.8867 34.2903H12.1592V40.0622H10.8867V34.2903Z" fill="white"/>
<path d="M13.5434 34.2903H14.7493V35.1387L14.7719 35.1612C14.9655 34.8416 15.2186 34.5898 15.5311 34.408C15.8436 34.2262 16.1905 34.1347 16.5695 34.1347C17.2016 34.1347 17.7006 34.2987 18.0653 34.6254C18.4301 34.9533 18.6119 35.444 18.6119 36.0987V40.0622H17.3394V36.4337C17.324 35.9799 17.2277 35.6507 17.0495 35.4452C16.8713 35.2408 16.5921 35.1387 16.2119 35.1387C15.9956 35.1387 15.802 35.1779 15.6309 35.2563C15.4598 35.3347 15.3148 35.4428 15.1948 35.5806C15.076 35.7185 14.9834 35.8801 14.9156 36.0666C14.8491 36.2531 14.8147 36.4504 14.8147 36.6583V40.0634H13.5422V34.2903H13.5434Z" fill="white"/>
<path d="M24.8982 31.9011H26.1148L22.9105 40.2523H21.6938L24.8982 31.9011Z" fill="white"/>
<path d="M27.2768 32.0911H33.7307V33.2971H31.1964V40.0634H29.8004V33.2971H27.2768V32.0911Z" fill="white"/>
<path d="M34.2321 37.5054C34.2321 37.7288 34.2642 37.945 34.3271 38.153C34.3901 38.3609 34.4851 38.5438 34.6123 38.7007C34.7382 38.8575 34.8986 38.9823 35.0923 39.0749C35.2859 39.1676 35.5164 39.2139 35.7849 39.2139C36.1568 39.2139 36.4562 39.1343 36.6832 38.9739C36.9101 38.8135 37.08 38.5735 37.1917 38.2539H38.3976C38.3311 38.5664 38.2146 38.8456 38.0519 39.0916C37.8879 39.3375 37.6907 39.5442 37.4602 39.7118C37.2297 39.8793 36.9707 40.0064 36.6843 40.0908C36.398 40.1763 36.0986 40.2191 35.7861 40.2191C35.3323 40.2191 34.9307 40.1442 34.5802 39.9957C34.2309 39.8472 33.9339 39.6381 33.6927 39.3708C33.4503 39.1023 33.2685 38.7827 33.1449 38.4108C33.0226 38.0389 32.9608 37.629 32.9608 37.1823C32.9608 36.7735 33.0261 36.3838 33.1556 36.0155C33.2863 35.6472 33.4717 35.3229 33.7141 35.0436C33.9552 34.7644 34.2475 34.5434 34.5909 34.3795C34.9331 34.2155 35.3204 34.1335 35.7517 34.1335C36.2055 34.1335 36.6131 34.2286 36.9742 34.4187C37.3354 34.6088 37.6348 34.8595 37.8725 35.172C38.1101 35.4844 38.2836 35.8432 38.3917 36.2496C38.4998 36.6559 38.5271 37.0741 38.476 37.5054H34.2321ZM37.2024 36.6678C37.1869 36.467 37.1441 36.2733 37.0741 36.0868C37.0028 35.9015 36.9065 35.7387 36.7841 35.6009C36.6618 35.4631 36.5121 35.3514 36.3374 35.2658C36.1628 35.1803 35.9667 35.1375 35.7517 35.1375C35.5283 35.1375 35.3251 35.1767 35.1434 35.2551C34.9604 35.3335 34.8047 35.4417 34.674 35.5795C34.5434 35.7173 34.44 35.8789 34.3616 36.0654C34.2832 36.252 34.2404 36.4528 34.2333 36.6678H37.2024Z" fill="white"/>
<path d="M43.3437 36.2222C43.2915 35.8646 43.1489 35.5949 42.9136 35.4131C42.6796 35.2302 42.3837 35.1399 42.0261 35.1399C41.8622 35.1399 41.6875 35.1672 41.501 35.2242C41.3144 35.2801 41.1433 35.3846 40.9877 35.5367C40.8309 35.6888 40.7014 35.9014 40.5968 36.1735C40.4923 36.4456 40.44 36.8008 40.44 37.2393C40.44 37.4769 40.4673 37.7157 40.5231 37.9533C40.579 38.1909 40.6681 38.4036 40.7905 38.5902C40.9129 38.7767 41.0709 38.9264 41.2645 39.0428C41.4582 39.1581 41.6923 39.2163 41.9679 39.2163C42.3398 39.2163 42.6475 39.101 42.8887 38.8705C43.1311 38.6401 43.2808 38.3157 43.3414 37.8987H44.6138C44.495 38.6507 44.2099 39.2258 43.7596 39.6238C43.3093 40.0218 42.7117 40.2214 41.9679 40.2214C41.514 40.2214 41.1136 40.1454 40.7679 39.9921C40.4222 39.8401 40.1299 39.6309 39.8911 39.3672C39.6534 39.1034 39.4729 38.7886 39.3493 38.4238C39.2269 38.0591 39.1651 37.6646 39.1651 37.2405C39.1651 36.8092 39.2245 36.4028 39.3433 36.0238C39.4622 35.6436 39.6404 35.3145 39.8792 35.0353C40.1168 34.7561 40.4127 34.5363 40.7667 34.3771C41.1196 34.2167 41.5354 34.1371 42.0119 34.1371C42.3469 34.1371 42.6653 34.1799 42.9659 34.2654C43.2677 34.3509 43.535 34.4793 43.7703 34.6504C44.0043 34.8214 44.1968 35.0377 44.3453 35.2979C44.4938 35.5581 44.583 35.867 44.6138 36.2246H43.3437V36.2222Z" fill="white"/>
<path d="M45.6546 32.0911H46.9271V35.0495H46.9497C47.1065 34.7893 47.3382 34.5719 47.6471 34.3961C47.956 34.2214 48.3006 34.1335 48.6796 34.1335C49.3117 34.1335 49.8107 34.2975 50.1754 34.6242C50.5402 34.9521 50.722 35.4428 50.722 36.0975V40.061H49.4495V36.4325C49.434 35.9786 49.3378 35.6495 49.1596 35.444C48.9814 35.2396 48.7022 35.1375 48.322 35.1375C48.1057 35.1375 47.9121 35.1767 47.741 35.2551C47.5699 35.3335 47.4249 35.4416 47.3049 35.5794C47.1861 35.7173 47.0934 35.8788 47.0257 36.0654C46.9592 36.2519 46.9247 36.4491 46.9247 36.6571V40.0622H45.6523V32.0911H45.6546Z" fill="white"/>
</svg>
