<svg width="52" height="58" viewBox="0 0 52 58" fill="none" xmlns="http://www.w3.org/2000/svg">
<g clip-path="url(#clip0_941_4723)">
<path d="M25.8837 49.2374C36.5919 49.2374 45.2726 40.457 45.2726 29.6259C45.2726 18.7947 36.5919 10.0144 25.8837 10.0144C15.1754 10.0144 6.49472 18.7947 6.49472 29.6259C6.49472 40.457 15.1754 49.2374 25.8837 49.2374Z" fill="#F3A658"/>
<path d="M37.3287 34.8792H14.0578L14.904 22.3505C14.9992 20.9275 16.1733 19.8255 17.5801 19.8255H33.8063C35.2132 19.8255 36.3873 20.9275 36.4825 22.3505L37.3287 34.8792Z" fill="white" stroke="#00274A" stroke-width="0.5805" stroke-miterlimit="10" stroke-linecap="round" stroke-linejoin="round"/>
<path d="M37.3287 34.8792H14.0578L11.847 37.4898C11.9422 37.7894 13.1163 38.0141 14.5232 38.0141H36.8633C38.2701 38.0141 39.4443 37.7894 39.5394 37.4898L37.3287 34.8792Z" fill="white" stroke="#00274A" stroke-width="0.5805" stroke-miterlimit="10" stroke-linecap="round" stroke-linejoin="round"/>
<path d="M32.5053 30.5889C32.5053 34.676 18.8812 34.676 18.8812 30.5889C18.8812 26.5018 21.9276 23.1851 25.6932 23.1851C29.4589 23.1851 32.5053 26.5018 32.5053 30.5889Z" fill="white" stroke="#00274A" stroke-width="0.5805" stroke-miterlimit="10" stroke-linecap="round" stroke-linejoin="round"/>
<path d="M25.6933 24.6615C27.995 24.6615 29.8609 22.7742 29.8609 20.4461C29.8609 18.1179 27.995 16.2306 25.6933 16.2306C23.3915 16.2306 21.5256 18.1179 21.5256 20.4461C21.5256 22.7742 23.3915 24.6615 25.6933 24.6615Z" fill="white" stroke="#00274A" stroke-width="0.5805" stroke-miterlimit="10" stroke-linecap="round" stroke-linejoin="round"/>
<path d="M33.9756 31.7123H17.1359V34.1624H33.9756V31.7123Z" fill="white"/>
<path d="M16.8503 32.0118H34.716" stroke="#00274A" stroke-width="0.5805" stroke-miterlimit="10" stroke-linecap="round" stroke-linejoin="round"/>
<path d="M5.57445 44.2302C2.00977 39.2551 0.179823 32.9747 0.877952 26.3733C1.43857 21.0665 3.55411 16.3161 6.71685 12.5286" stroke="#F3A658" stroke-width="1.3931" stroke-miterlimit="10" stroke-linecap="round" stroke-linejoin="round"/>
<path d="M46.4255 44.2302C49.9902 39.2551 51.8202 32.9747 51.122 26.3733C50.5614 21.0665 48.4459 16.3161 45.2831 12.5286" stroke="#F3A658" stroke-width="1.3931" stroke-miterlimit="10" stroke-linecap="round" stroke-linejoin="round"/>
<path d="M9.98538 52.9821L9.03339 52.3402L12.4923 47.119L14.8088 48.6811L14.2482 49.5156L12.8837 48.5955L11.9211 50.0506L13.1904 50.9065L12.6298 51.7517L11.3605 50.8958L9.98538 52.9821Z" fill="#00274A"/>
<path d="M14.8511 52.9714L13.8674 55.2075L12.8096 54.726L15.3483 48.9806L16.734 49.6118C17.3157 49.8793 17.686 50.211 17.8446 50.6176C18.0033 51.0241 17.9504 51.5163 17.6965 52.094C17.3792 52.8216 16.9138 53.2175 16.3003 53.2816L16.2791 56.2881L15.1473 55.7745L15.2425 53.1319L14.8511 52.9714ZM15.2531 52.0512L15.5281 52.1796C15.782 52.2866 15.9829 52.2973 16.1628 52.2117C16.332 52.1154 16.4801 51.9336 16.607 51.6447C16.734 51.3558 16.7763 51.1204 16.7128 50.9385C16.6493 50.7567 16.5013 50.6176 16.258 50.5106L15.9935 50.3929L15.2531 52.0512Z" fill="#00274A"/>
<path d="M17.8023 56.7268L19.463 50.6603L20.5102 50.9599L18.8495 57.0263L17.8023 56.7268Z" fill="#00274A"/>
<path d="M23.6412 57.8716L20.8593 57.4972L21.6843 51.2596L24.4663 51.634L24.3287 52.6397L22.6998 52.4151L22.4988 53.9022L24.0114 54.1055L23.8739 55.1112L22.3613 54.908L22.1286 56.6305L23.7575 56.8552L23.6412 57.8716Z" fill="#00274A"/>
<path d="M29.8926 57.7325L28.4858 57.8181L26.2856 53.3887H26.2327C26.3279 53.731 26.3808 54.0948 26.402 54.5014L26.6135 57.9358L25.5452 58L25.1644 51.7196L26.5818 51.634L28.7608 56.01H28.8031C28.7291 55.7104 28.6868 55.3573 28.655 54.94L28.4435 51.5163L29.5013 51.4521L29.8926 57.7325Z" fill="#00274A"/>
<path d="M34.9805 53.1211C35.2661 54.1162 35.2873 54.94 35.0334 55.5819C34.7795 56.2239 34.2824 56.6626 33.5314 56.8872L32.0716 57.3152L30.3369 51.2809L31.9341 50.8101C32.6322 50.6069 33.2458 50.7031 33.7746 51.1097C34.3035 51.5163 34.7161 52.1796 34.9805 53.1211ZM33.8487 53.4849C33.4573 52.1368 32.8967 51.5698 32.1668 51.7838L31.7226 51.9121L32.8967 55.9992L33.2563 55.8922C33.6583 55.7745 33.9122 55.5178 34.0074 55.1112C34.1026 54.7046 34.0497 54.1804 33.8487 53.4849Z" fill="#00274A"/>
<path d="M37.5403 55.4536L34.7689 49.8259L35.8055 49.3016L38.1221 54.0199L39.5606 53.2924L40.0155 54.2125L37.5403 55.4536Z" fill="#00274A"/>
<path d="M40.2059 49.5263L39.476 47.012L40.4703 46.3058L41.4118 50.2431L42.8503 52.3081L41.9195 52.9714L40.5126 50.9493L37.1384 48.6917L38.1327 47.9856L40.2059 49.5263Z" fill="#00274A"/>
<path d="M13.55 7.29679L14.703 9.44732L13.6875 10.0037L10.7258 4.47222L12.0586 3.74468C12.6192 3.4344 13.1058 3.33811 13.5183 3.4665C13.9308 3.58419 14.2905 3.92656 14.5866 4.48292C14.9569 5.17836 14.9886 5.79891 14.6713 6.33387L17.0195 8.18482L15.93 8.77327L13.9097 7.09351L13.55 7.29679ZM13.074 6.40876L13.3385 6.26967C13.5817 6.14128 13.7087 5.9701 13.7404 5.77751C13.7721 5.58493 13.7087 5.34955 13.5712 5.07137C13.4231 4.79319 13.2538 4.62201 13.0846 4.55781C12.9048 4.49362 12.7038 4.53641 12.4711 4.6648L12.2172 4.80389L13.074 6.40876Z" fill="#00274A"/>
<path d="M20.214 7.11494L17.559 8.01366L15.5915 2.05424L18.2465 1.15552L18.5639 2.11844L16.9984 2.6427L17.4638 4.06568L18.9129 3.57352L19.2303 4.53644L17.7811 5.0286L18.3311 6.67627L19.8966 6.15201L20.214 7.11494Z" fill="#00274A"/>
<path d="M23.1546 6.59067L21.4939 1.36949L21.4515 1.38019C21.5467 1.78676 21.5996 2.16122 21.6314 2.5036L22.0122 6.70836L20.9438 6.79395L20.3726 0.534957L22.1391 0.37447L23.6517 5.19978H23.6834L24.2864 0.181885L26.0846 0L26.6558 6.25899L25.5663 6.35529L25.1749 2.11843C25.1432 1.76536 25.1326 1.40159 25.1326 1.02712H25.1009L24.4133 6.46228L23.1546 6.59067Z" fill="#00274A"/>
<path d="M32.3043 4.02292C32.135 5.05003 31.8071 5.80967 31.3417 6.29113C30.8657 6.78329 30.2839 6.96518 29.5752 6.83679C28.8665 6.7191 28.3694 6.34463 28.0732 5.73478C27.7876 5.12493 27.7241 4.2904 27.9039 3.26328C28.0732 2.23616 28.4011 1.47652 28.8665 0.995063C29.3425 0.513602 29.9349 0.331717 30.6436 0.460106C31.3523 0.577797 31.8494 0.952267 32.135 1.56212C32.4206 2.17197 32.4735 2.9958 32.3043 4.02292ZM29.0675 3.46656C28.9511 4.17271 28.9511 4.72906 29.0569 5.12493C29.1733 5.5315 29.3954 5.75618 29.7445 5.82037C30.432 5.93806 30.8974 5.27472 31.1407 3.81963C31.384 2.37525 31.1619 1.59421 30.4849 1.47652C30.1358 1.41233 29.8502 1.56212 29.607 1.89379C29.3637 2.23616 29.1838 2.76042 29.0675 3.46656Z" fill="#00274A"/>
<path d="M34.2717 8.08853L33.1928 7.68196L35.0122 2.74966L33.9015 2.3324L34.2612 1.36948L37.572 2.62128L37.2123 3.5842L36.1017 3.16693L34.2717 8.08853Z" fill="#00274A"/>
<path d="M38.3653 10.2391L35.943 8.8161L39.0529 3.37024L41.4752 4.78252L40.978 5.65985L39.55 4.82532L38.8096 6.11992L40.1318 6.89025L39.6346 7.76758L38.3124 6.99725L37.4451 8.51652L38.8731 9.35106L38.3653 10.2391Z" fill="#00274A"/>
</g>
<defs>
<clipPath id="clip0_941_4723">
<rect width="52" height="58" fill="white"/>
</clipPath>
</defs>
</svg>
