<svg width="111" height="24" viewBox="0 0 111 24" fill="none" xmlns="http://www.w3.org/2000/svg">
<path d="M22 5.79997C21.2483 6.12606 20.4534 6.34163 19.64 6.43997C20.4982 5.92729 21.1413 5.12075 21.45 4.16997C20.6436 4.65003 19.7608 4.98826 18.84 5.16997C18.2245 4.50254 17.405 4.05826 16.5098 3.90682C15.6147 3.75537 14.6945 3.90532 13.8938 4.33315C13.093 4.76099 12.4569 5.4425 12.0852 6.2708C11.7135 7.09911 11.6273 8.02736 11.84 8.90997C10.2094 8.82749 8.61444 8.40292 7.15865 7.66383C5.70287 6.92474 4.41885 5.88766 3.39 4.61997C3.02914 5.25013 2.83952 5.96379 2.84 6.68997C2.83872 7.36435 3.00422 8.02858 3.32176 8.62353C3.63929 9.21848 4.09902 9.72568 4.66 10.1C4.00798 10.0822 3.36989 9.90726 2.8 9.58997V9.63997C2.80489 10.5849 3.13599 11.4991 3.73731 12.2279C4.33864 12.9568 5.17326 13.4556 6.1 13.64C5.74326 13.7485 5.37287 13.8058 5 13.81C4.74189 13.807 4.48442 13.7835 4.23 13.74C4.49391 14.5528 5.00462 15.2631 5.69107 15.7721C6.37753 16.2811 7.20558 16.5635 8.06 16.58C6.6172 17.7152 4.83588 18.3348 3 18.34C2.66574 18.3411 2.33174 18.321 2 18.28C3.87443 19.4902 6.05881 20.1327 8.29 20.13C9.82969 20.146 11.3571 19.855 12.7831 19.274C14.2091 18.6931 15.505 17.8338 16.5952 16.7465C17.6854 15.6591 18.548 14.3654 19.1326 12.9409C19.7172 11.5164 20.012 9.98969 20 8.44997C20 8.27996 20 8.09997 20 7.91997C20.7847 7.33478 21.4615 6.61739 22 5.79997Z" fill="#EA99A3"/>
<path d="M49.4701 2.00002H32.5301C32.3396 1.99737 32.1506 2.03227 31.9736 2.1027C31.7967 2.17314 31.6354 2.27774 31.4989 2.41053C31.3624 2.54332 31.2533 2.7017 31.1781 2.87663C31.1028 3.05155 31.0627 3.2396 31.0601 3.43002V20.57C31.0627 20.7604 31.1028 20.9485 31.1781 21.1234C31.2533 21.2983 31.3624 21.4567 31.4989 21.5895C31.6354 21.7223 31.7967 21.8269 31.9736 21.8973C32.1506 21.9678 32.3396 22.0027 32.5301 22H49.4701C49.6605 22.0027 49.8496 21.9678 50.0265 21.8973C50.2034 21.8269 50.3648 21.7223 50.5013 21.5895C50.6378 21.4567 50.7468 21.2983 50.8221 21.1234C50.8974 20.9485 50.9375 20.7604 50.9401 20.57V3.43002C50.9375 3.2396 50.8974 3.05155 50.8221 2.87663C50.7468 2.7017 50.6378 2.54332 50.5013 2.41053C50.3648 2.27774 50.2034 2.17314 50.0265 2.1027C49.8496 2.03227 49.6605 1.99737 49.4701 2.00002ZM37.0901 18.74H34.0901V9.74002H37.0901V18.74ZM35.5901 8.48002C35.1763 8.48002 34.7795 8.31566 34.487 8.0231C34.1944 7.73055 34.0301 7.33376 34.0301 6.92002C34.0301 6.50628 34.1944 6.10949 34.487 5.81693C34.7795 5.52437 35.1763 5.36002 35.5901 5.36002C35.8098 5.3351 36.0322 5.35687 36.2429 5.4239C36.4536 5.49093 36.6478 5.60171 36.8127 5.74898C36.9776 5.89625 37.1096 6.0767 37.1999 6.2785C37.2903 6.4803 37.337 6.69891 37.337 6.92002C37.337 7.14112 37.2903 7.35973 37.1999 7.56154C37.1096 7.76334 36.9776 7.94378 36.8127 8.09106C36.6478 8.23833 36.4536 8.3491 36.2429 8.41613C36.0322 8.48316 35.8098 8.50493 35.5901 8.48002ZM47.9101 18.74H44.9101V13.91C44.9101 12.7 44.4801 11.91 43.3901 11.91C43.0527 11.9125 42.7242 12.0183 42.4489 12.2132C42.1735 12.4081 41.9645 12.6827 41.8501 13C41.7718 13.2351 41.7379 13.4826 41.7501 13.73V18.73H38.7501C38.7501 18.73 38.7501 10.55 38.7501 9.73002H41.7501V11C42.0226 10.5271 42.419 10.1375 42.8965 9.87322C43.374 9.6089 43.9146 9.47987 44.4601 9.50002C46.4601 9.50002 47.9101 10.79 47.9101 13.56V18.74Z" fill="#EA99A3"/>
<path d="M70 7C69.0111 7 68.0444 7.29324 67.2221 7.84265C66.3999 8.39206 65.759 9.17295 65.3806 10.0866C65.0022 11.0002 64.9031 12.0055 65.0961 12.9755C65.289 13.9454 65.7652 14.8363 66.4645 15.5355C67.1637 16.2348 68.0546 16.711 69.0245 16.9039C69.9945 17.0969 70.9998 16.9978 71.9134 16.6194C72.827 16.241 73.6079 15.6001 74.1573 14.7779C74.7068 13.9556 75 12.9889 75 12C75 10.6739 74.4732 9.40215 73.5355 8.46447C72.5979 7.52678 71.3261 7 70 7ZM70 15C69.4067 15 68.8266 14.8241 68.3333 14.4944C67.8399 14.1648 67.4554 13.6962 67.2284 13.1481C67.0013 12.5999 66.9419 11.9967 67.0576 11.4147C67.1734 10.8328 67.4591 10.2982 67.8787 9.87868C68.2982 9.45912 68.8328 9.1734 69.4147 9.05764C69.9967 8.94189 70.5999 9.0013 71.1481 9.22836C71.6962 9.45542 72.1648 9.83994 72.4944 10.3333C72.8241 10.8266 73 11.4067 73 12C73 12.7956 72.6839 13.5587 72.1213 14.1213C71.5587 14.6839 70.7956 15 70 15ZM75 6C74.8022 6 74.6089 6.05865 74.4444 6.16853C74.28 6.27841 74.1518 6.43459 74.0761 6.61732C74.0004 6.80004 73.9806 7.00111 74.0192 7.19509C74.0578 7.38907 74.153 7.56725 74.2929 7.70711C74.4327 7.84696 74.6109 7.9422 74.8049 7.98079C74.9989 8.01937 75.2 7.99957 75.3827 7.92388C75.5654 7.84819 75.7216 7.72002 75.8315 7.55557C75.9414 7.39112 76 7.19778 76 7C76 6.73478 75.8946 6.48043 75.7071 6.29289C75.5196 6.10536 75.2652 6 75 6ZM79.94 8.24C79.9234 7.38542 79.7611 6.53995 79.46 5.74C79.1808 5.01207 78.7516 4.35099 78.2003 3.7997C77.649 3.2484 76.9879 2.81922 76.26 2.54C75.4601 2.2389 74.6146 2.07657 73.76 2.06C72.79 2 72.47 2 70 2C67.53 2 67.21 2 66.24 2.06C65.3854 2.07657 64.5399 2.2389 63.74 2.54C63.0121 2.81922 62.351 3.2484 61.7997 3.7997C61.2484 4.35099 60.8192 5.01207 60.54 5.74C60.2389 6.53995 60.0766 7.38542 60.06 8.24C60 9.22 60 9.54 60 12C60 14.46 60 14.78 60.06 15.76C60.0766 16.6146 60.2389 17.4601 60.54 18.26C60.8192 18.9879 61.2484 19.649 61.7997 20.2003C62.351 20.7516 63.0121 21.1808 63.74 21.46C64.5399 21.7611 65.3854 21.9234 66.24 21.94C67.24 21.94 67.53 22 70 22C72.47 22 72.79 22 73.76 21.94C74.6146 21.9234 75.4601 21.7611 76.26 21.46C76.9879 21.1808 77.649 20.7516 78.2003 20.2003C78.7516 19.649 79.1808 18.9879 79.46 18.26C79.7611 17.4601 79.9234 16.6146 79.94 15.76C79.94 14.76 80 14.46 80 12C80 9.54 80 9.22 79.94 8.24ZM77.94 15.67C77.9225 16.3046 77.8043 16.9324 77.59 17.53C77.4128 18.0023 77.1327 18.4293 76.77 18.78C76.4214 19.1428 75.9936 19.4201 75.52 19.59C74.921 19.8131 74.289 19.9348 73.65 19.95C72.71 19.95 72.42 20 69.99 20C67.56 20 67.28 20 66.34 20C65.702 19.9835 65.0708 19.8654 64.47 19.65C63.9977 19.4728 63.5707 19.1927 63.22 18.83C62.8572 18.4814 62.5799 18.0536 62.41 17.58C62.1878 16.9842 62.0661 16.3557 62.05 15.72C62.05 14.72 62.05 14.47 62.05 12.05C62.05 9.63 62.05 9.34 62.05 8.38C62.0672 7.74121 62.1888 7.10954 62.41 6.51C62.5826 6.04063 62.8595 5.61662 63.22 5.27C63.5686 4.90715 63.9964 4.62992 64.47 4.46C65.069 4.2369 65.701 4.11523 66.34 4.1C67.28 4 67.57 4 70 4C72.43 4 72.72 4 73.66 4C74.3021 4.01633 74.9373 4.13794 75.54 4.36C76.0094 4.53256 76.4334 4.80953 76.78 5.17C77.1428 5.51858 77.4201 5.94641 77.59 6.42C77.8348 7.02856 77.9735 7.67458 78 8.33C78 9.33 78.05 9.58 78.05 12C78.05 14.42 78 14.71 78 15.67H77.94Z" fill="#EA99A3"/>
<path d="M102.4 11.16L97.5 8.00005C97.348 7.91228 97.1755 7.86608 97 7.86608C96.8245 7.86608 96.652 7.91228 96.5 8.00005C96.3517 8.08557 96.2279 8.20771 96.1404 8.35479C96.0528 8.50187 96.0045 8.66895 96 8.84005V15.16C96.0013 15.3382 96.0502 15.5129 96.1416 15.6658C96.233 15.8188 96.3637 15.9445 96.52 16.0301C96.6654 16.1157 96.8312 16.1606 97 16.16C97.1771 16.1479 97.3487 16.093 97.5 16L102.4 12.84C102.54 12.7494 102.656 12.625 102.736 12.4783C102.816 12.3315 102.857 12.1671 102.857 12C102.857 11.833 102.816 11.6686 102.736 11.5218C102.656 11.3751 102.54 11.2507 102.4 11.16ZM98 13.32V10.68L100 12L98 13.32ZM106.38 4.51005L104.83 4.31005C100.991 3.84001 97.109 3.84001 93.27 4.31005L91.72 4.51005C90.9747 4.59116 90.2854 4.94392 89.7837 5.50098C89.282 6.05803 89.003 6.78036 89 7.53005V16.47C89.0064 17.2086 89.2805 17.9198 89.7715 18.4715C90.2626 19.0233 90.9372 19.3781 91.67 19.47L93.22 19.66C95.1378 19.8931 97.0681 20.0066 99 20C100.932 20 102.863 19.8798 104.78 19.64L106.33 19.4501C107.063 19.3581 107.737 19.0033 108.228 18.4515C108.719 17.8998 108.994 17.1886 109 16.4501V7.53005C108.998 6.78803 108.727 6.072 108.235 5.51609C107.744 4.96017 107.066 4.6025 106.33 4.51005H106.38ZM107.05 16.51C107.051 16.762 106.957 17.0049 106.786 17.1903C106.615 17.3757 106.381 17.4899 106.13 17.51L104.58 17.7001C100.908 18.1601 97.1923 18.1601 93.52 17.7001L91.97 17.51C91.7189 17.4899 91.4846 17.3757 91.3141 17.1903C91.1435 17.0049 91.0492 16.762 91.05 16.51V7.53005C91.0619 7.282 91.1606 7.04601 91.3287 6.86325C91.4968 6.68049 91.7238 6.56256 91.97 6.53005L93.47 6.30005C97.1427 5.8467 100.857 5.8467 104.53 6.30005L106.08 6.49005C106.326 6.52256 106.553 6.64049 106.721 6.82325C106.889 7.00601 106.988 7.242 107 7.49005L107.05 16.51Z" fill="#EA99A3"/>
</svg>
