<svg width="52" height="58" viewBox="0 0 52 58" fill="none" xmlns="http://www.w3.org/2000/svg">
<path d="M26.7107 49.2635C37.1178 49.2635 45.5543 40.4555 45.5543 29.5903C45.5543 18.7251 37.1178 9.91708 26.7107 9.91708C16.3037 9.91708 7.86716 18.7251 7.86716 29.5903C7.86716 40.4555 16.3037 49.2635 26.7107 49.2635Z" fill="#8CBB78" stroke="#8CBB78" stroke-width="1.3931" stroke-miterlimit="10" stroke-linecap="round" stroke-linejoin="round"/>
<path d="M22.3314 26.7245C22.3314 26.7245 24.0379 27.7656 26.1659 25.8337C28.2939 23.9126 26.9472 19.9844 30.3499 16.4318C33.7527 12.8792 37.2068 15.5946 38.646 17.0972C40.0853 18.5998 42.6862 22.206 39.2834 25.7586C35.8807 29.3111 32.1181 27.9052 30.278 30.1268C28.4378 32.3485 29.4247 34.1302 29.4247 34.1302" fill="white"/>
<path d="M22.3314 26.7245C22.3314 26.7245 24.0379 27.7656 26.1659 25.8337C28.2939 23.9126 26.9472 19.9844 30.3499 16.4318C33.7527 12.8792 37.2068 15.5946 38.646 17.0972C40.0853 18.5998 42.6862 22.206 39.2834 25.7586C35.8807 29.3111 32.1181 27.9052 30.278 30.1268C28.4378 32.3485 29.4247 34.1302 29.4247 34.1302" stroke="#00274A" stroke-width="0.5805" stroke-miterlimit="10" stroke-linecap="round" stroke-linejoin="round"/>
<path d="M24.6373 42.9116C27.0059 40.4386 26.5373 35.94 23.5905 32.8635C20.6438 29.787 16.3348 29.2978 13.9662 31.7707C11.5976 34.2436 12.0662 38.7422 15.013 41.8187C17.9597 44.8952 22.2686 45.3845 24.6373 42.9116Z" fill="white" stroke="#00274A" stroke-width="0.5805" stroke-miterlimit="10" stroke-linecap="round" stroke-linejoin="round"/>
<path d="M22.7691 40.9611C24.3107 39.3516 24.0081 36.4261 22.0931 34.4269C20.1781 32.4276 17.376 32.1116 15.8344 33.7211C14.2928 35.3306 14.5954 38.256 16.5104 40.2553C18.4254 42.2546 21.2275 42.5706 22.7691 40.9611Z" fill="#8CBB78" stroke="#00274A" stroke-width="0.5805" stroke-miterlimit="10" stroke-linecap="round" stroke-linejoin="round"/>
<path d="M24.976 35.7977C25.8552 34.8798 25.6274 33.1538 24.4672 31.9425C23.3069 30.7311 21.6537 30.4933 20.7745 31.4112C19.8953 32.3291 20.1231 34.0552 21.2833 35.2665C22.4435 36.4778 24.0968 36.7157 24.976 35.7977Z" fill="white" stroke="#00274A" stroke-width="0.5805" stroke-miterlimit="10" stroke-linecap="round" stroke-linejoin="round"/>
<path d="M23.1332 33.293C31.8611 42.4051 35.1919 40.6986 34.6265 39.3677C34.0611 38.0369 29.3527 34.216 25.8061 30.5132C22.2594 26.8104 18.5997 21.8947 17.3249 21.3044C16.0399 20.7034 14.4053 24.1808 23.1332 33.293Z" fill="white" stroke="#00274A" stroke-width="0.5805" stroke-miterlimit="10" stroke-linecap="round" stroke-linejoin="round"/>
<path d="M6.22233 42.0082C5.65692 42.3195 5.14291 42.4053 4.69059 42.2658C4.23826 42.1263 3.86817 41.7828 3.59061 41.214L3.45696 40.9564L1.51401 42.0082L1 40.9671L6.36626 38.0586L7.07559 39.486C7.59988 40.57 7.32231 41.4179 6.22233 42.0082ZM4.3205 40.4842L4.4233 40.6881C4.54666 40.9457 4.71115 41.0959 4.90647 41.1496C5.10179 41.2033 5.3588 41.1496 5.65692 40.9779C5.93449 40.8276 6.11953 40.6559 6.20177 40.4627C6.28401 40.2695 6.26345 40.0549 6.14009 39.8187L6.01673 39.5612L4.3205 40.4842Z" fill="#00274A"/>
<path d="M5.08124 47.718L6.07841 46.4623L5.11208 45.1529L3.69341 45.8398L3.00464 44.9168L8.72042 42.2765L9.65592 43.5322L5.77001 48.6518L5.08124 47.718ZM6.73635 45.6466L7.65128 44.4874C7.70268 44.4123 7.84661 44.2406 8.08305 43.9723C8.30921 43.6932 8.4737 43.5215 8.55594 43.4356C8.35033 43.5537 8.11389 43.6825 7.85689 43.822C7.59988 43.9615 6.99335 44.2621 6.04757 44.7128L6.73635 45.6466Z" fill="#00274A"/>
<path d="M9.22414 48.6518L7.68212 50.4978L6.83914 49.7251L10.8176 44.9812L11.9278 45.9901C12.4007 46.4194 12.6474 46.8487 12.6783 47.2887C12.7091 47.7288 12.5241 48.1795 12.1232 48.6518C11.6194 49.2528 11.0746 49.4889 10.4886 49.3816L9.61479 52.258L8.71014 51.4316L9.54283 48.9308L9.22414 48.6518ZM9.86152 47.8898L10.0774 48.0829C10.2727 48.2654 10.468 48.3405 10.6531 48.2976C10.8381 48.2547 11.0335 48.1259 11.2288 47.8898C11.4344 47.6429 11.5269 47.4282 11.5269 47.2458C11.5166 47.0526 11.4241 46.8809 11.2288 46.6984L11.0129 46.5052L9.86152 47.8898Z" fill="#00274A"/>
<path d="M13.1512 54.5656L10.8176 53.0952L13.9427 47.6966L16.2763 49.167L15.7726 50.0363L14.4054 49.167L13.6652 50.4549L14.9296 51.2599L14.4259 52.1292L13.1512 51.3243L12.2876 52.8161L13.6549 53.6855L13.1512 54.5656Z" fill="#00274A"/>
<path d="M18.7641 56.9697L17.4791 56.476L17.2221 51.5174L17.1707 51.496C17.1193 51.8501 17.0268 52.2151 16.9034 52.5907L15.7726 55.832L14.796 55.4564L16.8623 49.5319L18.1576 50.0256L18.4146 54.9412L18.4557 54.9626C18.5071 54.6621 18.5997 54.308 18.7333 53.9216L19.8641 50.691L20.8305 51.0559L18.7641 56.9697Z" fill="#00274A"/>
<path d="M22.5987 57.721L21.4884 57.5385L22.2594 52.3224L21.1183 52.1399L21.2725 51.1203L24.665 51.6677L24.5108 52.6873L23.3697 52.5048L22.5987 57.721Z" fill="#00274A"/>
<path d="M27.8108 57.9464L27.4407 56.358L25.8678 56.3795L25.5388 57.9786L24.4183 58.0001L25.8267 51.6463L27.3482 51.6248L28.9313 57.9357L27.8108 57.9464ZM27.2145 55.3276L26.8753 53.868C26.8547 53.7821 26.8136 53.5567 26.7313 53.2026C26.6594 52.8484 26.6183 52.6015 26.5977 52.4835C26.5669 52.7303 26.5257 53.0094 26.4743 53.2991C26.4229 53.5997 26.2893 54.2758 26.0734 55.3491L27.2145 55.3276Z" fill="#00274A"/>
<path d="M30.3602 57.678L29.2191 51.4852L30.3191 51.2598L31.2752 56.4438L32.8069 56.1325L32.9919 57.1414L30.3602 57.678Z" fill="#00274A"/>
<path d="M36.9703 55.7461L34.4003 50.0363L35.418 49.5319L37.5769 54.3079L38.9853 53.6211L39.4067 54.5548L36.9703 55.7461Z" fill="#00274A"/>
<path d="M42.974 52.1615L40.7124 53.7499L37.3302 48.5123L39.5918 46.9239L40.1367 47.761L38.8105 48.6948L39.6124 49.9398L40.846 49.0704L41.3909 49.9183L40.1573 50.7877L41.0927 52.2366L42.4189 51.3028L42.974 52.1615Z" fill="#00274A"/>
<path d="M46.4281 48.9202L45.1123 48.0294L43.9815 49.1778L44.7936 50.573L43.9917 51.3887L40.8254 45.7647L41.9151 44.6593L47.23 48.1045L46.4281 48.9202ZM44.2693 47.4391L43.0562 46.6234C42.9843 46.5697 42.7992 46.4409 42.5114 46.237C42.2235 46.0331 42.0385 45.8935 41.946 45.8077C42.0899 46.0116 42.2338 46.237 42.3983 46.4946C42.5628 46.7522 42.9123 47.3425 43.4572 48.2655L44.2693 47.4391Z" fill="#00274A"/>
<path d="M44.6085 41.1174L45.2562 40.1514L49.4094 44.9704L48.5973 46.194L42.8301 43.8006L43.4777 42.8346L46.9524 44.3587C47.2506 44.4875 47.6618 44.6914 48.1861 44.9812C47.8057 44.6377 47.4767 44.305 47.1992 43.983L44.6085 41.1174Z" fill="#00274A"/>
<path d="M52 39.8509L50.8589 42.4375L45.3795 39.7865L46.5206 37.2106L47.4047 37.6399L46.7365 39.1533L48.0421 39.7865L48.6692 38.3805L49.5533 38.8098L48.9262 40.2158L50.4477 40.9456L51.1159 39.4323L52 39.8509Z" fill="#00274A"/>
<path d="M21.3137 2.36115C21.4782 3.00512 21.4473 3.55249 21.2212 3.9818C20.995 4.41111 20.5838 4.71163 19.9978 4.87262L19.7305 4.94775L20.2959 7.15871L19.2062 7.45923L17.6642 1.363L19.1446 0.955155C20.2754 0.643904 21.0053 1.11615 21.3137 2.36115ZM19.4838 3.97107L19.6894 3.91741C19.9567 3.84228 20.1315 3.71348 20.224 3.52029C20.3165 3.3271 20.3165 3.05878 20.2343 2.71533C20.152 2.39335 20.0287 2.17869 19.8745 2.06063C19.71 1.94257 19.5146 1.91037 19.2576 1.97477L18.9904 2.0499L19.4838 3.97107Z" fill="#00274A"/>
<path d="M25.765 6.28942L25.3127 4.72243L23.7398 4.84049L23.5034 6.45041L22.3726 6.547L23.4314 0.118061L24.9529 0L26.8856 6.21429L25.765 6.28942ZM25.0248 3.70281L24.6034 2.26462C24.5828 2.17876 24.5211 1.95337 24.4286 1.60992C24.3361 1.25574 24.2744 1.01962 24.2538 0.901554C24.2333 1.14841 24.2127 1.42746 24.1716 1.72798C24.1408 2.0285 24.0379 2.7154 23.8837 3.78867L25.0248 3.70281Z" fill="#00274A"/>
<path d="M27.5948 6.3645L28.1397 0.0858154L29.1883 0.182411L28.6537 6.46109L27.5948 6.3645Z" fill="#00274A"/>
<path d="M34.3901 4.46491C34.1434 5.47379 33.7527 6.19289 33.2284 6.6222C32.7041 7.05151 32.0668 7.15884 31.3266 6.96565L29.8874 6.56854L31.4088 0.461578L32.9714 0.880157C33.6499 1.06261 34.1125 1.47046 34.3592 2.09296C34.6162 2.73693 34.6265 3.52042 34.3901 4.46491ZM33.2593 4.19659C33.5985 2.83352 33.4135 2.05003 32.6836 1.85684L32.2518 1.73878L31.2238 5.8709L31.5733 5.9675C31.9742 6.07483 32.3032 5.97823 32.5808 5.68845C32.8686 5.38793 33.0845 4.89422 33.2593 4.19659Z" fill="#00274A"/>
<path d="M2.4392 36.4593C0.753249 30.5455 1.08221 23.9878 3.82702 17.9882C6.03726 13.1584 9.49141 9.38048 13.5932 6.85828" stroke="#8CBB78" stroke-width="1.3931" stroke-miterlimit="10" stroke-linecap="round" stroke-linejoin="round"/>
<path d="M50.1804 36.4593C51.8663 30.5455 51.5374 23.9878 48.7926 17.9882C46.5823 13.1584 43.1282 9.38048 39.0264 6.85828" stroke="#8CBB78" stroke-width="1.3931" stroke-miterlimit="10" stroke-linecap="round" stroke-linejoin="round"/>
</svg>
