<svg width="51" height="58" viewBox="0 0 51 58" fill="none" xmlns="http://www.w3.org/2000/svg">
<g clip-path="url(#clip0_941_4820)">
<path d="M13.4924 51.9516C8.38321 49.0354 4.24235 44.175 2.13043 37.9106C0.433504 32.8735 0.295168 27.6499 1.45719 22.8288" stroke="#808080" stroke-width="1.5225" stroke-miterlimit="10" stroke-linecap="round" stroke-linejoin="round"/>
<path d="M36.7328 51.9516C41.8328 49.0354 45.9829 44.175 48.0948 37.9204C49.7918 32.8834 49.9301 27.6597 48.7681 22.8387" stroke="#808080" stroke-width="1.5225" stroke-miterlimit="10" stroke-linecap="round" stroke-linejoin="round"/>
<path d="M21.9309 57.8036L19.3025 57.3029L20.3538 51.0973L22.9822 51.5981L22.8162 52.5996L21.2761 52.3051L21.0271 53.7779L22.4566 54.0528L22.2905 55.0543L20.8611 54.7794L20.5752 56.4977L22.1153 56.7923L21.9309 57.8036Z" fill="#00274A"/>
<path d="M24.7622 55.5355L24.7529 57.9902L23.6462 57.9804L23.6739 51.6767L25.1126 51.6865C25.7213 51.6865 26.1732 51.8436 26.4591 52.1578C26.745 52.4622 26.8925 52.9335 26.8833 53.5717C26.8833 54.367 26.6251 54.9267 26.1178 55.2409L27.243 58.0098L26.0625 58L25.1403 55.5355H24.7622ZM24.7714 54.5241H25.0573C25.3155 54.5241 25.4999 54.4456 25.6198 54.2885C25.7397 54.1314 25.7951 53.8957 25.7951 53.5913C25.7951 53.2673 25.7397 53.0415 25.6198 52.904C25.4999 52.7665 25.3155 52.6978 25.0665 52.6978H24.7898L24.7714 54.5241Z" fill="#00274A"/>
<path d="M29.8898 54.0234L31.6697 53.6601L32.2415 56.8414C31.7804 57.1752 31.2639 57.4011 30.6921 57.5189C30.0189 57.6563 29.4471 57.4894 28.986 57.0181C28.5249 56.5468 28.1929 55.7908 28.0084 54.7598C27.824 53.7681 27.8978 52.9433 28.2113 52.2952C28.5249 51.6472 29.0598 51.2446 29.8068 51.0875C30.2679 50.9893 30.7382 51.0286 31.2086 51.1955L31.0334 52.2069C30.6645 52.0694 30.3417 52.0301 30.0558 52.0891C29.6408 52.1774 29.3549 52.4327 29.1889 52.8746C29.0229 53.3164 28.9952 53.8761 29.1151 54.5438C29.2442 55.2409 29.4194 55.7515 29.6684 56.0853C29.9082 56.4192 30.1941 56.5566 30.5261 56.4879C30.7014 56.4486 30.8766 56.3897 31.0426 56.3013L30.7844 54.8776L30.065 55.0249L29.8898 54.0234Z" fill="#00274A"/>
<path d="M13.391 10.1429L10.3752 4.71306L11.3252 4.11411L13.8521 8.66024L15.1709 7.83545L15.6597 8.71915L13.391 10.1429Z" fill="#00274A"/>
<path d="M16.794 4.44795L18.491 3.78027L19.5423 6.81429C19.1365 7.22668 18.6662 7.53107 18.1221 7.74708C17.4765 8.00237 16.8863 7.93364 16.3606 7.55071C15.8257 7.16777 15.3922 6.48045 15.051 5.48875C14.719 4.53632 14.6637 3.72135 14.8758 3.02421C15.0879 2.32707 15.5582 1.83613 16.2684 1.5612C16.711 1.38446 17.1814 1.34519 17.661 1.42374L17.6425 2.4449C17.2644 2.37617 16.9324 2.39581 16.6557 2.50381C16.2591 2.66092 16.0194 2.9653 15.9179 3.43661C15.8165 3.89809 15.881 4.45777 16.1024 5.09599C16.3329 5.76367 16.5912 6.23498 16.877 6.52955C17.1629 6.81429 17.4673 6.90266 17.7808 6.77502C17.9468 6.70628 18.1128 6.61792 18.2696 6.50009L17.7993 5.14509L17.1076 5.42001L16.794 4.44795Z" fill="#00274A"/>
<path d="M19.5331 0.628406L21.0271 0.382935C21.6358 0.284746 22.0969 0.33384 22.4105 0.540036C22.724 0.746232 22.9177 1.11935 23.0007 1.66921C23.056 2.0325 23.0191 2.34671 22.9085 2.61182C22.7978 2.87692 22.6134 3.06348 22.3736 3.15185L22.3828 3.19113C22.724 3.22058 22.9915 3.34823 23.1667 3.56425C23.3512 3.78026 23.471 4.09446 23.5264 4.49704C23.6094 5.06653 23.5264 5.52802 23.2958 5.89131C23.056 6.27425 22.6964 6.50008 22.1984 6.57863L20.4369 6.86338L19.5331 0.628406ZM20.9257 2.97511L21.4237 2.88674C21.6542 2.84747 21.8018 2.7591 21.8848 2.61182C21.9586 2.46453 21.977 2.25834 21.9401 2.00305C21.9032 1.74776 21.8202 1.57102 21.7003 1.47283C21.5805 1.37464 21.4052 1.34518 21.1747 1.38446L20.7135 1.46301L20.9257 2.97511ZM21.064 3.93736L21.313 5.68512L21.8663 5.59675C22.0969 5.55747 22.2537 5.45928 22.3367 5.29236C22.4289 5.12544 22.4474 4.88979 22.4012 4.57559C22.3182 4.01591 22.0508 3.78026 21.5897 3.84899L21.064 3.93736Z" fill="#00274A"/>
<path d="M26.3669 6.37244L25.2694 6.34298L25.4077 1.07026L24.2734 1.03098L24.301 0L27.6672 0.0981886L27.6396 1.12917L26.5052 1.09971L26.3669 6.37244Z" fill="#00274A"/>
<path d="M32.5736 4.29085C32.426 4.99781 32.2139 5.5673 31.9372 6.00915C31.6606 6.451 31.3286 6.75539 30.932 6.91249L31.6421 8.8468L30.3971 8.55224L29.8899 6.98122L29.8437 6.9714C29.1705 6.8143 28.7186 6.42155 28.4696 5.78332C28.2206 5.15491 28.2114 4.32031 28.4235 3.28933C28.6356 2.26817 28.9768 1.53175 29.4472 1.07027C29.9175 0.60878 30.4893 0.461497 31.1718 0.618599C31.8358 0.775701 32.2969 1.16846 32.5367 1.79686C32.7765 2.44491 32.7857 3.26969 32.5736 4.29085ZM29.521 3.57408C29.3734 4.27121 29.3457 4.83089 29.438 5.24328C29.5302 5.64586 29.7331 5.89133 30.0559 5.96988C30.7014 6.12698 31.181 5.47893 31.4761 4.04538C31.7712 2.61183 31.6052 1.80668 30.9597 1.6594C30.6369 1.58085 30.351 1.70849 30.102 2.03251C29.8622 2.34672 29.6685 2.86712 29.521 3.57408Z" fill="#00274A"/>
<path d="M32.8779 7.84525L35.1282 2.01285L36.0873 2.43506L33.8371 8.26746L32.8779 7.84525Z" fill="#00274A"/>
<path d="M37.0741 7.0303L36.1887 6.47063L36.613 5.70476L37.4983 6.26443L38.273 4.87997L38.9554 5.312L38.1808 6.69646L39.0661 7.25614L38.6419 8.02201L37.7658 7.46233L37.0003 8.82716L36.3178 8.39513L37.0741 7.0303Z" fill="#00274A"/>
<path d="M8.53994 20.109C5.34899 26.0985 5.34899 33.4823 8.53994 39.462L16.8493 29.7806L8.53994 20.109Z" fill="white"/>
<path d="M37.6274 15.8771C32.6012 10.5356 25.4077 8.92535 19.072 11.0364L23.2313 15.8771H37.6274Z" fill="#E20C19"/>
<path d="M23.222 15.8771L29.1889 22.8288H41.8421C40.9475 20.2956 39.5457 17.9292 37.6367 15.8869L37.6274 15.8771H23.222Z" fill="#E78321"/>
<path d="M35.165 29.7806H43.0409C43.0409 27.4241 42.6352 25.0675 41.842 22.8288H29.1981L35.165 29.7806Z" fill="#F6E724"/>
<path d="M29.1981 36.7324H41.8513C42.6444 34.4937 43.0502 32.1371 43.0502 29.7806H35.1742L29.1981 36.7324Z" fill="#13763C"/>
<path d="M23.222 43.6841H37.6274L37.6367 43.6743C39.5457 41.6418 40.9475 39.2656 41.8421 36.7323H29.1982L23.222 43.6841Z" fill="#105BA3"/>
<path d="M23.222 43.6841L19.0627 48.5248C25.3985 50.6359 32.592 49.0256 37.6182 43.6841H23.222Z" fill="#652276"/>
<path d="M29.1981 22.8289L23.2312 15.8771L19.0719 11.0364C17.9376 11.4095 16.8401 11.9103 15.7795 12.5191L18.6569 15.8771L24.6238 22.8289L30.5907 29.7806L24.6238 36.7324L20.9349 41.0232L18.6569 43.6841L17.2459 45.3239L15.7703 47.0422C16.2499 47.3171 16.7479 47.5724 17.2459 47.808C17.8454 48.083 18.4448 48.3186 19.0627 48.5248L23.222 43.6841L29.1889 36.7324L35.1558 29.7806L29.1981 22.8289Z" fill="#010101"/>
<path d="M24.587 22.8288L18.6201 15.8771L15.7519 12.5387C14.7743 13.1082 13.8337 13.766 12.9483 14.5417L20.068 22.8288L26.0349 29.7806L21.645 34.8962L20.068 36.7323L18.6662 38.3721L12.9575 45.0194C13.8429 45.7853 14.7836 46.453 15.7611 47.0225L17.2644 45.2747L18.6293 43.6841L20.9349 41.0035L24.6054 36.7323L30.5723 29.7806L24.587 22.8288Z" fill="#88664A"/>
<path d="M10.5136 17.0946C9.75733 18.0372 9.10254 19.0486 8.53998 20.0894L16.9047 29.7806L8.53998 39.462C9.10254 40.5126 9.75733 41.524 10.5136 42.4666L19.3302 32.196L21.4144 29.7708L10.5136 17.0946Z" fill="#EEA3B4"/>
<path d="M20.0218 22.8289L12.9206 14.5614C12.4502 14.9738 11.9891 15.4156 11.5464 15.8869C11.196 16.26 10.864 16.6528 10.5412 17.0554L21.4697 29.7806L19.367 32.2353L10.5504 42.5058C10.8732 42.9084 11.196 43.2914 11.5557 43.6743C11.9983 44.1456 12.4595 44.5874 12.9298 44.9998L18.6477 38.3426L20.031 36.7324L21.6357 34.8668L26.0072 29.7806L20.0218 22.8289Z" fill="#54B2DC"/>
<path d="M1.70617 36.4771C0.0553584 30.5661 0.378142 24.0071 3.07108 18.0078C4.26999 15.3371 5.8378 12.9904 7.68228 10.9971" stroke="#808080" stroke-width="1.5225" stroke-miterlimit="10" stroke-linecap="round" stroke-linejoin="round"/>
<path d="M48.5191 36.4771C50.1699 30.5661 49.8471 24.0071 47.1542 18.0078C45.9553 15.3371 44.3874 12.9904 42.543 10.9971" stroke="#808080" stroke-width="1.5225" stroke-miterlimit="10" stroke-linecap="round" stroke-linejoin="round"/>
</g>
<defs>
<clipPath id="clip0_941_4820">
<rect width="50.2252" height="58" fill="white"/>
</clipPath>
</defs>
</svg>
