<svg width="54" height="58" viewBox="0 0 54 58" fill="none" xmlns="http://www.w3.org/2000/svg">
<g clip-path="url(#clip0_941_4659)">
<path d="M26.3736 49.38C37.1219 49.38 45.8352 40.5703 45.8352 29.7031C45.8352 18.8359 37.1219 10.0263 26.3736 10.0263C15.6252 10.0263 6.91191 18.8359 6.91191 29.7031C6.91191 40.5703 15.6252 49.38 26.3736 49.38Z" fill="#EA98A2"/>
<path d="M14.6732 51.9456C9.30083 49.0257 4.92647 44.1736 2.70744 37.9045C0.923719 32.8699 0.775076 27.642 1.99607 22.8221" stroke="#EA98A2" stroke-width="1.3931" stroke-miterlimit="10" stroke-linecap="round" stroke-linejoin="round"/>
<path d="M38.9021 51.9456C44.2745 49.0257 48.6488 44.1736 50.8679 37.9045C52.6516 32.8699 52.8002 27.642 51.5792 22.8221" stroke="#EA98A2" stroke-width="1.3931" stroke-miterlimit="10" stroke-linecap="round" stroke-linejoin="round"/>
<path d="M23.56 57.8065L20.7888 57.302L21.893 51.0865L24.6642 51.5911L24.4837 52.5894L22.8592 52.2888L22.5938 53.7702L24.1015 54.0493L23.921 55.0477L22.4133 54.7686L22.1054 56.4861L23.7298 56.7867L23.56 57.8065Z" fill="#00274A"/>
<path d="M26.5435 55.531L26.5328 57.9893L25.3755 57.9785L25.4074 51.6665L26.9257 51.6772C27.5733 51.6772 28.0405 51.8382 28.3484 52.1495C28.6563 52.4608 28.805 52.9332 28.7944 53.5665C28.7944 54.3609 28.5183 54.9191 27.9874 55.2304L29.1766 58L27.9343 57.9893L26.9575 55.531H26.5435ZM26.5541 54.5219H26.8514C27.1274 54.5219 27.3185 54.4468 27.4459 54.2858C27.5627 54.1355 27.6264 53.8993 27.6264 53.588C27.6264 53.266 27.5627 53.0405 27.4353 52.901C27.3079 52.7614 27.1168 52.697 26.8514 52.697H26.5647L26.5541 54.5219Z" fill="#00274A"/>
<path d="M31.9477 54.0282L33.8164 53.6632L34.4216 56.8407C33.9332 57.1735 33.3917 57.3989 32.7971 57.517C32.0857 57.6565 31.4805 57.4848 30.9921 57.0124C30.5037 56.5401 30.164 55.7887 29.9623 54.7581C29.7711 53.7598 29.8455 52.944 30.1746 52.2891C30.5037 51.6451 31.0665 51.2371 31.8628 51.0868C32.3512 50.9902 32.8396 51.0224 33.3386 51.1942L33.1581 52.2033C32.7759 52.0637 32.4255 52.0315 32.1282 52.0852C31.6929 52.1711 31.385 52.4287 31.2151 52.8688C31.0346 53.3089 31.0134 53.8672 31.1408 54.5434C31.2682 55.2412 31.4699 55.7565 31.7247 56.0893C31.9796 56.422 32.2768 56.5508 32.6272 56.4864C32.8077 56.4542 32.9882 56.3898 33.1793 56.3039L32.9033 54.887L32.1494 55.0372L31.9477 54.0282Z" fill="#00274A"/>
<path d="M8.13291 16.5746L7.46402 17.8842L4.2788 16.9181C3.83288 16.8 3.33386 16.6068 2.78175 16.3599L3.04719 16.5424L4.10893 17.2938L6.73142 19.3334L6.06252 20.6431L0 18.7537L0.520252 17.7339L3.9072 18.8611C4.24695 18.9792 4.77782 19.1724 5.48919 19.4408C4.84153 19.0221 4.38498 18.7108 4.13016 18.5068L1.27409 16.2525L1.82619 15.1683L5.28746 16.2203C5.79709 16.3814 6.31734 16.5746 6.84821 16.8C6.14746 16.3169 5.6803 15.9949 5.46795 15.8339L2.59064 13.7084L3.12151 12.6779L8.13291 16.5746Z" fill="#00274A"/>
<path d="M9.62997 9.95109C10.3944 10.6596 10.851 11.3359 10.9996 12.0122C11.1483 12.6777 10.9784 13.2789 10.5006 13.8156C10.0122 14.3523 9.43885 14.5778 8.76996 14.4919C8.10106 14.406 7.37908 14.0088 6.61463 13.3003C5.85018 12.6026 5.39363 11.9156 5.24499 11.25C5.09634 10.5844 5.26622 9.97256 5.75462 9.43582C6.24302 8.89908 6.81636 8.67365 7.48526 8.75953C8.15415 8.84541 8.86551 9.24259 9.62997 9.95109ZM7.41093 12.4094C7.9418 12.8924 8.39835 13.193 8.79119 13.3111C9.18404 13.4292 9.50256 13.3647 9.73614 13.0964C10.2033 12.5704 9.90602 11.8189 8.82305 10.8206C7.75069 9.84374 6.98624 9.60758 6.51907 10.1336C6.28549 10.4019 6.24302 10.724 6.39167 11.1104C6.54031 11.4969 6.88006 11.9263 7.41093 12.4094Z" fill="#00274A"/>
<path d="M14.3441 10.3054L10.4687 6.44084L10.4263 6.46231C10.6917 6.78436 10.9147 7.08493 11.1058 7.37477L13.3673 10.9387L12.4648 11.5291L9.09911 6.21541L10.5962 5.23855L14.1424 8.82396L14.1742 8.80249L12.4117 4.04699L13.93 3.05939L17.3063 8.3731L16.3826 8.97425L14.0999 5.3781C13.9088 5.07753 13.7389 4.76622 13.569 4.43344L13.5372 4.45491L15.4164 9.61834L14.3441 10.3054Z" fill="#00274A"/>
<path d="M20.9162 7.13863L18.2725 8.09403L16.1703 2.1577L18.814 1.2023L19.1538 2.1577L17.6036 2.7159L18.1026 4.1329L19.5466 3.60689L19.8864 4.56229L18.4424 5.08829L19.0263 6.73071L20.5871 6.1725L20.9162 7.13863Z" fill="#00274A"/>
<path d="M26.0232 6.24764L24.6217 6.4516L22.0735 2.20063L22.0205 2.21136C22.1372 2.54414 22.2222 2.90912 22.2859 3.30631L22.7743 6.71997L21.7126 6.87026L20.8101 0.622617L22.2222 0.418656L24.7491 4.62669L24.7916 4.61595C24.696 4.32612 24.6217 3.97187 24.558 3.56395L24.0696 0.150287L25.1313 0L26.0232 6.24764Z" fill="#00274A"/>
<path d="M29.5057 6.46229L30.3445 0.203918L31.4274 0.354205L30.5887 6.61258L29.5057 6.46229Z" fill="#00274A"/>
<path d="M36.0354 8.11543L34.687 7.6753L34.241 2.72657L34.188 2.7051C34.1455 3.05935 34.0712 3.42433 33.9438 3.81078L32.8926 7.09563L31.8734 6.76285L33.7845 0.751373L35.1435 1.1915L35.5894 6.08656L35.6319 6.09729C35.6744 5.79672 35.7593 5.44247 35.8867 5.04528L36.9272 1.77118L37.9465 2.10396L36.0354 8.11543Z" fill="#00274A"/>
<path d="M40.4416 10.7884L39.4967 10.1229L42.4908 5.79675L41.514 5.09899L42.0979 4.25095L45.0071 6.31202L44.4231 7.16007L43.4463 6.46231L40.4416 10.7884Z" fill="#00274A"/>
<path d="M43.8816 13.9123L41.875 11.9156L46.2493 7.41772L48.256 9.41439L47.5553 10.1336L46.3767 8.96353L45.3362 10.037L46.4298 11.1212L45.7185 11.8512L44.6249 10.767L43.4145 12.0122L44.593 13.1823L43.8816 13.9123Z" fill="#00274A"/>
<path d="M49.9866 13.1716C49.7955 12.9032 49.477 12.7959 49.0523 12.871C48.6276 12.9462 48.1286 13.1824 47.5659 13.5903C46.3873 14.4383 46.0264 15.179 46.4617 15.8016C46.6528 16.07 46.9394 16.2954 47.3217 16.4672L46.4829 17.0791C46.1431 16.9503 45.8352 16.6819 45.5592 16.2954C45.1451 15.7158 45.0602 15.1039 45.2938 14.4705C45.5273 13.8264 46.0582 13.2146 46.8864 12.6134C47.7145 12.0123 48.4684 11.7117 49.1479 11.701C49.838 11.6902 50.3795 11.9693 50.7829 12.5383C50.9104 12.7208 51.0165 12.9247 51.0908 13.1287C51.1652 13.3326 51.2076 13.5903 51.2183 13.8801L50.2308 14.1163C50.2308 13.9553 50.2096 13.7942 50.1884 13.6332C50.1459 13.4722 50.0822 13.3112 49.9866 13.1716Z" fill="#00274A"/>
<path d="M48.3197 21.4481L47.8419 20.3746L50.337 19.226L49.7 17.8197L47.2049 18.9683L46.7271 17.8949L52.4074 15.2863L52.8852 16.3598L50.6237 17.4011L51.2607 18.8181L53.5222 17.7768L54 18.8503L48.3197 21.4481Z" fill="#00274A"/>
<path d="M25.4286 31.528C28.3909 31.0235 30.6418 28.4149 30.6418 25.2804C30.6418 21.7808 27.8282 18.9361 24.3669 18.9361C20.9056 18.9361 18.092 21.7808 18.092 25.2804C18.092 28.4149 20.3429 31.0235 23.3052 31.528V35.1134H18.5061V37.2604H23.3052V42.1125H25.4286V37.2604H30.2277V35.1134H25.4286V31.528ZM24.3669 29.4777C22.0735 29.4777 20.2155 27.5991 20.2155 25.2804C20.2155 22.9617 22.0735 21.0831 24.3669 21.0831C26.6603 21.0831 28.5183 22.9617 28.5183 25.2804C28.5183 27.5991 26.6603 29.4777 24.3669 29.4777Z" fill="white" stroke="#00274A" stroke-width="0.5805" stroke-miterlimit="10" stroke-linecap="round" stroke-linejoin="round"/>
<path d="M32.4145 34.5012C32.3189 34.5012 32.2233 34.4583 32.1703 34.3831C32.1172 34.308 32.0959 34.2006 32.1172 34.1148L35.0051 23.7235C35.0476 23.5839 35.1644 23.4981 35.3024 23.4981H36.757C36.8525 23.4981 36.9481 23.541 37.0012 23.6161C37.0543 23.6913 37.0755 23.7986 37.0543 23.8845L34.1663 34.2758C34.1239 34.4153 34.0071 34.5012 33.869 34.5012H32.4145Z" fill="white"/>
<path d="M36.7574 23.799L33.8695 34.1902H32.4149L35.3028 23.799H36.7574ZM36.7574 23.1764H35.3028C35.0267 23.1764 34.7825 23.3589 34.7082 23.6272L31.8203 34.0185C31.7672 34.2117 31.8097 34.4049 31.9265 34.566C32.0433 34.727 32.2238 34.8129 32.4149 34.8129H33.8695C34.1455 34.8129 34.3897 34.6304 34.464 34.362L37.352 23.9707C37.405 23.7775 37.3626 23.5843 37.2458 23.4233C37.129 23.2622 36.9485 23.1764 36.7574 23.1764Z" fill="#00274A"/>
<path d="M37.7868 33.8356C37.7231 33.8356 37.6701 33.8142 37.617 33.782C37.532 33.7283 37.4789 33.6317 37.4789 33.5243V32.0537C37.4789 31.9249 37.5533 31.8068 37.6701 31.7638L41.4074 30.2395L37.6701 28.7259C37.5533 28.683 37.4789 28.5649 37.4789 28.4361V26.9654C37.4789 26.858 37.532 26.7614 37.617 26.7078C37.6701 26.6756 37.7338 26.6541 37.7868 26.6541C37.8293 26.6541 37.8612 26.6648 37.9036 26.6756L44.1785 29.2197C44.2953 29.2626 44.3696 29.3807 44.3696 29.5095V30.9802C44.3696 31.109 44.2953 31.2271 44.1785 31.27L37.9036 33.8142C37.8612 33.8249 37.8293 33.8356 37.7868 33.8356Z" fill="white"/>
<path d="M37.7873 26.9658L44.0621 29.5099V30.9806L37.7873 33.5247V32.054L42.2359 30.2506L37.7873 28.4472V26.9658ZM37.7873 26.3431C37.6705 26.3431 37.5431 26.3753 37.4369 26.4505C37.267 26.5686 37.1608 26.7618 37.1608 26.9658V28.4364C37.1608 28.6941 37.3095 28.9195 37.5431 29.0161L40.569 30.2399L37.5431 31.4636C37.3095 31.5602 37.1608 31.7857 37.1608 32.0433V33.514C37.1608 33.7179 37.267 33.9112 37.4369 34.0292C37.5431 34.1044 37.6598 34.1366 37.7873 34.1366C37.8616 34.1366 37.9465 34.1259 38.0208 34.0936L44.2957 31.5495C44.5293 31.4529 44.6779 31.2275 44.6779 30.9698V29.4992C44.6779 29.2415 44.5293 29.0161 44.2957 28.9195L38.0208 26.3753C37.9465 26.3539 37.8616 26.3431 37.7873 26.3431Z" fill="#00274A"/>
<path d="M16.3504 33.8356C16.3079 33.8356 16.2761 33.8249 16.2336 33.8142L9.95872 31.27C9.84193 31.2271 9.76761 31.109 9.76761 30.9802V29.5095C9.76761 29.3807 9.84193 29.2626 9.95872 29.2197L16.2336 26.6756C16.2654 26.6648 16.3079 26.6541 16.3504 26.6541C16.4141 26.6541 16.4672 26.6756 16.5203 26.7078C16.6052 26.7614 16.6583 26.858 16.6583 26.9654V28.4361C16.6583 28.5649 16.584 28.683 16.4672 28.7259L12.7299 30.2395L16.4672 31.7531C16.584 31.796 16.6583 31.9141 16.6583 32.0429V33.5136C16.6583 33.6209 16.6052 33.7176 16.5203 33.7712C16.4672 33.8142 16.4141 33.8356 16.3504 33.8356Z" fill="white"/>
<path d="M16.3508 26.9658V28.4364L11.9021 30.2399L16.3508 32.0433V33.514L10.0759 30.9698V29.4992L16.3508 26.9658ZM16.3508 26.3431C16.2764 26.3431 16.1915 26.3539 16.1172 26.3861L9.84231 28.9302C9.60873 29.0268 9.46008 29.2523 9.46008 29.5099V30.9806C9.46008 31.2382 9.60873 31.4636 9.84231 31.5602L16.1172 34.1044C16.1915 34.1366 16.2658 34.1473 16.3508 34.1473C16.4676 34.1473 16.595 34.1151 16.7011 34.04C16.871 33.9219 16.9772 33.7287 16.9772 33.5247V32.054C16.9772 31.7964 16.8285 31.571 16.595 31.4744L13.569 30.2506L16.595 29.0268C16.8285 28.9302 16.9772 28.7048 16.9772 28.4472V26.9765C16.9772 26.7725 16.871 26.5793 16.7011 26.4612C16.595 26.3753 16.4782 26.3431 16.3508 26.3431Z" fill="#00274A"/>
</g>
<defs>
<clipPath id="clip0_941_4659">
<rect width="54" height="58" fill="white"/>
</clipPath>
</defs>
</svg>
