<svg width="53" height="58" viewBox="0 0 53 58" fill="none" xmlns="http://www.w3.org/2000/svg">
<g clip-path="url(#clip0_941_4694)">
<path d="M27.2962 49.3661C38.1157 49.3661 46.8867 40.5532 46.8867 29.6819C46.8867 18.8107 38.1157 9.9978 27.2962 9.9978C16.4767 9.9978 7.70578 18.8107 7.70578 29.6819C7.70578 40.5532 16.4767 49.3661 27.2962 49.3661Z" fill="#84C1BA"/>
<path d="M14.3108 51.9433C8.90283 49.0224 4.49952 44.1685 2.2658 37.897C0.47028 32.8606 0.320653 27.6308 1.54973 22.8091" stroke="#84C1BA" stroke-width="1.3931" stroke-miterlimit="10" stroke-linecap="round" stroke-linejoin="round"/>
<path d="M38.6893 51.9433C44.0972 49.0224 48.5005 44.1685 50.7342 37.897C52.5298 32.8606 52.6794 27.6308 51.4503 22.8091" stroke="#84C1BA" stroke-width="1.3931" stroke-miterlimit="10" stroke-linecap="round" stroke-linejoin="round"/>
<path d="M23.2563 57.7957L20.4668 57.2909L21.5783 51.0732L24.3678 51.5779L24.1861 52.5766L22.5509 52.2759L22.2837 53.7579L23.8014 54.0371L23.6197 55.0358L22.1127 54.7673L21.8028 56.4855L23.438 56.7862L23.2563 57.7957Z" fill="#00274A"/>
<path d="M26.2595 55.5301L26.2488 57.9893L25.0839 57.9785L25.116 51.6641L26.6443 51.6749C27.2962 51.6749 27.7665 51.836 28.0764 52.1474C28.3864 52.4588 28.536 52.9313 28.5253 53.5649C28.5253 54.3596 28.2474 54.918 27.713 55.2294L28.9101 58L27.6596 57.9893L26.6763 55.5301H26.2595ZM26.2595 54.5099H26.5588C26.8367 54.5099 27.029 54.4347 27.1573 54.2737C27.2749 54.1233 27.339 53.8871 27.339 53.5756C27.339 53.2535 27.2749 53.028 27.1466 52.8884C27.0184 52.7488 26.826 52.6843 26.5588 52.6843H26.2702L26.2595 54.5099Z" fill="#00274A"/>
<path d="M31.6995 54.0159L33.5806 53.6508L34.1898 56.8295C33.6981 57.1624 33.1531 57.3879 32.5545 57.506C31.8385 57.6456 31.2293 57.4738 30.7376 57.0013C30.246 56.5288 29.904 55.7771 29.7009 54.7462C29.5086 53.7475 29.5834 52.9313 29.9147 52.2762C30.246 51.6319 30.8125 51.2239 31.614 51.0735C32.1057 50.9769 32.5973 51.0091 33.0996 51.1809L32.9179 52.1903C32.5332 52.0507 32.1805 52.0185 31.8812 52.0722C31.443 52.1581 31.1331 52.4159 30.9621 52.8561C30.7804 53.2964 30.759 53.8548 30.8873 54.5314C31.0155 55.2294 31.2186 55.7449 31.4751 56.0778C31.7316 56.4107 32.0309 56.5395 32.3835 56.4751C32.5652 56.4429 32.7469 56.3784 32.9393 56.2925L32.6614 54.875L31.9026 55.0254L31.6995 54.0159Z" fill="#00274A"/>
<path d="M6.25228 19.3942L0.705399 16.4196L1.25047 15.3779L5.8889 17.8693L6.64772 16.4303L7.54549 16.9135L6.25228 19.3942Z" fill="#00274A"/>
<path d="M9.76853 13.9926L8.30433 13.2946L7.289 14.5832L8.30433 15.8504L7.57757 16.774L3.59108 11.6194L4.57434 10.3737L10.4953 13.0798L9.76853 13.9926ZM7.35313 12.8221L5.9958 12.1778C5.9103 12.1348 5.70723 12.0382 5.3866 11.8663C5.06597 11.6945 4.85222 11.5871 4.74534 11.5227C4.91635 11.7053 5.09804 11.9093 5.3011 12.1456C5.49348 12.3711 5.94236 12.9187 6.61568 13.7671L7.35313 12.8221Z" fill="#00274A"/>
<path d="M12.1519 11.6837L11.2862 12.4569L7.79132 8.51582L6.89356 9.31049L6.20955 8.54803L8.88146 6.16403L9.56547 6.93722L8.65702 7.73189L12.1519 11.6837Z" fill="#00274A"/>
<path d="M13.8085 10.4058L10.335 5.14385L11.2541 4.53174L14.7276 9.79373L13.8085 10.4058Z" fill="#00274A"/>
<path d="M19.8149 7.29167L18.5003 7.86082L14.9093 4.4459L14.8558 4.46737C15.0589 4.75732 15.2406 5.09022 15.4009 5.45534L16.7689 8.62327L15.775 9.05282L13.2741 3.26463L14.5887 2.69548L18.1476 6.07819L18.1904 6.05671C18.0194 5.79898 17.8484 5.48756 17.6881 5.10096L16.3307 1.93303L17.314 1.50348L19.8149 7.29167Z" fill="#00274A"/>
<path d="M24.3358 6.33586L23.1388 6.58285L21.8135 4.54249L21.4394 6.92649L20.2424 7.17348L21.0012 3.67265L19.0988 0.966482L20.2531 0.730229L21.4715 2.59877L21.7601 0.418805L22.9571 0.171814L22.2624 3.45787L24.3358 6.33586Z" fill="#00274A"/>
<path d="M27.339 6.30365L27.6596 0L28.7605 0.0536938L28.4398 6.35734L27.339 6.30365Z" fill="#00274A"/>
<path d="M33.9973 7.38828L32.608 7.06611L31.7423 2.16924L31.6888 2.1585C31.6781 2.51288 31.6354 2.88874 31.5392 3.27533L30.7697 6.63656L29.7116 6.38957L31.1224 0.236267L32.5225 0.55843L33.3882 5.40161L33.4309 5.41235C33.4416 5.10092 33.495 4.74654 33.5912 4.33847L34.3607 0.977241L35.4081 1.22423L33.9973 7.38828Z" fill="#00274A"/>
<path d="M38.6572 9.68629L37.6526 9.09565L40.2924 4.53168L39.2557 3.91958L39.7687 3.02826L42.8575 4.83237L42.3445 5.72369L41.3078 5.11158L38.6572 9.68629Z" fill="#00274A"/>
<path d="M42.3765 12.5106L40.1962 10.6958L44.2041 5.83115L46.3844 7.646L45.7431 8.42992L44.4606 7.36679L43.5094 8.52657L44.6957 9.51454L44.0438 10.2985L42.8574 9.3105L41.7459 10.6528L43.0285 11.716L42.3765 12.5106Z" fill="#00274A"/>
<path d="M48.4257 11.2435C48.2119 10.9858 47.8913 10.9106 47.4638 11.018C47.0363 11.1254 46.566 11.4046 46.0316 11.8664C44.9201 12.8114 44.6209 13.5846 45.1125 14.1645C45.3263 14.4222 45.6362 14.6155 46.0316 14.7551L45.2408 15.4317C44.8881 15.335 44.5568 15.0988 44.2468 14.7336C43.7872 14.1967 43.6483 13.5953 43.83 12.9403C44.0117 12.2852 44.4926 11.6194 45.2728 10.9536C46.053 10.2878 46.7798 9.92268 47.4638 9.84751C48.1478 9.77234 48.7249 10.0086 49.1738 10.5348C49.3234 10.7066 49.441 10.8999 49.5265 11.1039C49.612 11.308 49.6761 11.555 49.7189 11.8342L48.7463 12.1563C48.7249 11.9953 48.7036 11.8449 48.6608 11.6838C48.6181 11.5228 48.5432 11.3724 48.4257 11.2435Z" fill="#00274A"/>
<path d="M47.4104 19.6197L46.8547 18.5888L49.2808 17.268L48.5433 15.9041L46.1172 17.225L45.5615 16.1941L51.087 13.1872L51.6427 14.2181L49.4518 15.4209L50.1892 16.7847L52.3802 15.5927L52.9359 16.6236L47.4104 19.6197Z" fill="#00274A"/>
<path d="M12.8572 37.0487V20.5325H15.9139V34.3532H20.1462V37.0379H12.8572V37.0487Z" fill="white" stroke="#00274A" stroke-width="0.5805" stroke-miterlimit="10" stroke-linecap="round" stroke-linejoin="round"/>
<path d="M25.8 37.0487H22.754V23.2279H19.6118V20.5325H28.9528V23.2279H25.8107V37.0487H25.8Z" fill="white" stroke="#00274A" stroke-width="0.5805" stroke-miterlimit="10" stroke-linecap="round" stroke-linejoin="round"/>
<path d="M40.7092 37.0486H37.5243L35.173 31.1316L32.9927 37.0486H29.8185L33.5699 28.4684L30.0964 20.5432H33.1744L35.344 25.977L37.2251 20.5432H40.4313L36.9579 28.608L40.7092 37.0486Z" fill="white" stroke="#00274A" stroke-width="0.5805" stroke-miterlimit="10" stroke-linecap="round" stroke-linejoin="round"/>
</g>
<defs>
<clipPath id="clip0_941_4694">
<rect width="53" height="58" fill="white"/>
</clipPath>
</defs>
</svg>
