<svg width="51" height="58" viewBox="0 0 51 58" fill="none" xmlns="http://www.w3.org/2000/svg">
<g clip-path="url(#clip0_941_4786)">
<path d="M25.3251 48.7169C35.7426 48.7169 44.1876 39.9301 44.1876 29.091C44.1876 18.2518 35.7426 9.46497 25.3251 9.46497C14.9075 9.46497 6.46246 18.2518 6.46246 29.091C6.46246 39.9301 14.9075 48.7169 25.3251 48.7169Z" fill="#F4C96A"/>
<path d="M7.09022 46.34C3.12836 41.7789 0.720367 35.7294 0.720367 29.091C0.720367 23.7589 2.28453 18.8016 4.94979 14.6901" stroke="#F4C96A" stroke-width="1.3931" stroke-miterlimit="10" stroke-linecap="round" stroke-linejoin="round"/>
<path d="M43.9098 46.34C47.8717 41.7681 50.2797 35.7186 50.2797 29.0803C50.2797 23.7482 48.7155 18.7908 46.0503 14.6793" stroke="#F4C96A" stroke-width="1.3931" stroke-miterlimit="10" stroke-linecap="round" stroke-linejoin="round"/>
<path d="M13.5115 47.9673L14.4274 48.6526L9.7452 52.8925L8.58237 52.0253L10.9698 46.0614L11.8856 46.7467L10.3729 50.3443C10.2494 50.6548 10.0436 51.0723 9.75549 51.6184C10.0951 51.2329 10.4141 50.8903 10.7228 50.6119L13.5115 47.9673Z" fill="#00274A"/>
<path d="M14.6949 55.7087L15.0242 54.1134L13.5939 53.4174L12.6368 54.7023L11.6181 54.2098L15.5388 49.1346L16.928 49.8092L15.724 56.2013L14.6949 55.7087ZM15.2609 53.0748L15.5594 51.608C15.5799 51.5223 15.6314 51.2975 15.7137 50.9441C15.796 50.5908 15.8578 50.3552 15.8887 50.2375C15.7549 50.4409 15.6005 50.6764 15.4359 50.912C15.2609 51.1583 14.8596 51.715 14.2216 52.5716L15.2609 53.0748Z" fill="#00274A"/>
<path d="M20.3548 51.9613C20.0461 51.8756 19.7476 52.0041 19.4801 52.336C19.2022 52.6679 18.9861 53.1712 18.8215 53.8564C18.4716 55.2697 18.6568 56.0728 19.3669 56.2548C19.6756 56.3404 20.0255 56.319 20.4165 56.2013L20.1696 57.2077C19.83 57.3255 19.4492 57.3255 18.9964 57.2077C18.3378 57.0364 17.8953 56.6188 17.6792 55.9871C17.4631 55.3447 17.4734 54.5309 17.7101 53.5352C17.9571 52.5501 18.3276 51.8221 18.8215 51.3724C19.3257 50.912 19.902 50.7728 20.5503 50.9441C20.7664 50.9976 20.9619 51.0833 21.1472 51.2011C21.3324 51.3188 21.5176 51.4794 21.7029 51.6936L21.1163 52.518C21.0134 52.4002 20.9105 52.2932 20.787 52.1754C20.6532 52.079 20.5194 52.0041 20.3548 51.9613Z" fill="#00274A"/>
<path d="M24.718 57.925L24.471 56.319L22.8965 56.2119L22.454 57.7751L21.3324 57.7002L23.2258 51.4901L24.7488 51.5972L25.8499 58.0107L24.718 57.925ZM24.3269 55.2697L24.1005 53.7814C24.0902 53.6958 24.0594 53.4709 24.0079 53.1069C23.9667 52.7428 23.9359 52.5073 23.9359 52.3788C23.8844 52.6251 23.8227 52.8927 23.7506 53.1818C23.6786 53.4709 23.4934 54.1455 23.195 55.184L24.3269 55.2697Z" fill="#00274A"/>
<path d="M28.8239 57.7002L27.7022 57.818L27.1774 52.5822L26.0248 52.7107L25.9219 51.6828L29.3384 51.3081L29.4413 52.336L28.2888 52.4644L28.8239 57.7002Z" fill="#00274A"/>
<path d="M31.5509 57.197L30.0896 51.094L31.1187 50.8263L32.5799 56.9293L31.5509 57.197Z" fill="#00274A"/>
<path d="M37.2313 51.7043C37.6326 52.6572 37.7664 53.4709 37.6429 54.1455C37.5092 54.82 37.1284 55.2911 36.4904 55.5802C35.8524 55.8693 35.2452 55.8372 34.6895 55.4838C34.1338 55.1305 33.6502 54.4667 33.2489 53.503C32.8475 52.5501 32.7138 51.7364 32.8475 51.0725C32.9813 50.4087 33.3621 49.9269 34.0104 49.6378C34.6484 49.3487 35.2452 49.3808 35.8009 49.7342C36.3463 50.0982 36.83 50.7513 37.2313 51.7043ZM34.2985 53.0426C34.5763 53.6958 34.8645 54.1669 35.1732 54.4345C35.4819 54.7022 35.7803 54.7772 36.0891 54.6273C36.7065 54.3489 36.7374 53.5352 36.1714 52.1861C35.6054 50.837 35.0188 50.3016 34.4014 50.5907C34.0927 50.7299 33.928 51.0083 33.9075 51.4259C33.8869 51.8434 34.0207 52.3788 34.2985 53.0426Z" fill="#00274A"/>
<path d="M43.5497 50.9548L42.4383 51.8006L38.3324 49.2845L38.2912 49.3166C38.5485 49.5521 38.7852 49.8305 39.0115 50.1517L40.977 52.9249L40.1332 53.5673L36.5418 48.5028L37.6532 47.6463L41.718 50.141L41.7591 50.1089C41.543 49.8948 41.3166 49.6271 41.0799 49.2952L39.1247 46.5328L39.9583 45.8903L43.5497 50.9548Z" fill="#00274A"/>
<path d="M37.0254 26.0288C36.4389 25.4185 34.2675 23.5876 31.3965 26.5213C28.5254 29.455 26.1174 33.0526 24.0902 34.5516C22.0629 36.0505 18.5436 38.3097 17.5763 39.798C16.609 41.297 17.2264 44.3164 20.1592 44.9909C23.3081 45.7083 27.9903 40.3226 30.1925 39.1877C32.3947 38.0528 36.089 35.9221 37.5502 33.5451C38.888 31.3609 39.1967 28.2879 37.0254 26.0288Z" fill="white" stroke="#00274A" stroke-width="0.5805" stroke-miterlimit="10" stroke-linecap="round" stroke-linejoin="round"/>
<path d="M22.7422 36.6823C22.7422 36.6823 23.2361 31.7035 25.7367 30.5793C28.2373 29.455 32.2815 30.7291 33.2797 29.6906" stroke="#00274A" stroke-width="0.5805" stroke-miterlimit="10" stroke-linecap="round" stroke-linejoin="round"/>
<path d="M26.5496 40.6546C26.5496 40.6546 31.2936 39.5732 32.3741 36.9821C33.4546 34.391 32.2712 30.7399 33.2694 29.7013" stroke="#00274A" stroke-width="0.5805" stroke-miterlimit="10" stroke-linecap="round" stroke-linejoin="round"/>
<path d="M31.2319 13.9298C31.8184 14.5401 33.5781 16.7993 30.7585 19.7866C27.9389 22.7738 24.4812 25.2793 23.0406 27.3886C21.5999 29.4979 19.4286 33.1597 17.9982 34.1661C16.5575 35.1726 13.6556 34.5302 13.0073 31.4787C12.3178 28.2023 17.494 23.3306 18.5848 21.0393C19.6756 18.748 21.7234 14.9042 24.0079 13.3838C26.0969 11.9919 29.0605 11.6814 31.2319 13.9298Z" fill="white" stroke="#00274A" stroke-width="0.5805" stroke-miterlimit="10" stroke-linecap="round" stroke-linejoin="round"/>
<path d="M20.9928 28.8019C20.9928 28.8019 25.7779 28.288 26.8584 25.6862C27.9389 23.0844 26.7143 18.8765 27.7125 17.8379" stroke="#00274A" stroke-width="0.5805" stroke-miterlimit="10" stroke-linecap="round" stroke-linejoin="round"/>
<path d="M17.175 24.8296C17.175 24.8296 18.2863 19.9686 20.7767 18.8337C23.267 17.6987 26.704 18.8765 27.7022 17.8379" stroke="#00274A" stroke-width="0.5805" stroke-miterlimit="10" stroke-linecap="round" stroke-linejoin="round"/>
<path d="M8.21187 6.11365L10.8154 9.15445C11.2888 9.71121 11.5357 10.2573 11.546 10.7712C11.5563 11.2959 11.3299 11.767 10.8668 12.1845C10.4141 12.6021 9.95098 12.7734 9.46732 12.6985C8.98367 12.6235 8.50001 12.3023 8.00606 11.7241L5.41284 8.70475L6.24638 7.93384L8.89105 11.0282C9.40558 11.6278 9.84807 11.7455 10.2288 11.3922C10.4038 11.2316 10.4758 11.0282 10.4449 10.7819C10.4141 10.5357 10.27 10.2787 10.0333 10.0003L7.36805 6.88455L8.21187 6.11365Z" fill="#00274A"/>
<path d="M16.6707 8.13734L15.4667 8.82259L11.7312 5.73897L11.6798 5.77109C11.8959 6.03876 12.1017 6.34927 12.2869 6.7026L13.8614 9.72198L12.9455 10.2359L10.0641 4.71109L11.2784 4.02584L14.9727 7.06664L15.0139 7.04523C14.8287 6.80967 14.6434 6.49917 14.4479 6.13513L12.8735 3.11574L13.779 2.60181L16.6707 8.13734Z" fill="#00274A"/>
<path d="M17.6277 7.80545L15.796 1.80951L16.8662 1.45618L18.3995 6.47778L19.8813 5.98525L20.1798 6.95959L17.6277 7.80545Z" fill="#00274A"/>
<path d="M21.106 6.79899L20.0872 0.599622L21.1265 0.417603L22.1453 6.61698L21.106 6.79899Z" fill="#00274A"/>
<path d="M25.4691 6.37069L24.5121 0.963633H24.471C24.5121 1.38121 24.5224 1.75595 24.5121 2.09858L24.3578 6.31715L23.3184 6.27432L23.5345 0L25.2633 0.0642422L26.1175 5.04301H26.1483L27.3523 0.139191L29.1017 0.203434L28.8753 6.48846L27.8051 6.44563L27.9595 2.18423C27.9698 1.8309 28.0006 1.46686 28.0521 1.10282H28.0212L26.6937 6.42422L25.4691 6.37069Z" fill="#00274A"/>
<path d="M30.0381 6.91676L31.4994 0.80304L32.5285 1.07072L31.0672 7.18443L30.0381 6.91676Z" fill="#00274A"/>
<path d="M34.0206 8.27648L32.9813 7.83749L34.885 2.95508L33.8148 2.50539L34.1853 1.55246L37.3753 2.90155L37.0049 3.85447L35.9347 3.40478L34.0206 8.27648Z" fill="#00274A"/>
<path d="M37.9619 10.5356L35.6362 9.04736L38.8057 3.68314L41.1314 5.17141L40.6271 6.03868L39.2585 5.17141L38.5073 6.44555L39.773 7.25929L39.2585 8.12656L37.9927 7.31282L37.118 8.8011L38.4867 9.66837L37.9619 10.5356Z" fill="#00274A"/>
<path d="M43.5394 11.3281C42.8705 12.099 42.2016 12.538 41.543 12.6665C40.8844 12.7842 40.2773 12.5808 39.7113 12.0454L38.6205 11.0069L42.6955 6.3493L43.8893 7.48425C44.4141 7.97677 44.6405 8.56566 44.5787 9.2402C44.517 9.90404 44.1671 10.6107 43.5394 11.3281ZM42.6647 10.5465C43.5702 9.50788 43.7555 8.72627 43.1998 8.20162L42.8705 7.88041L40.1126 11.0283L40.3802 11.2852C40.6889 11.5743 41.0285 11.6493 41.3989 11.5315C41.7797 11.403 42.2016 11.0711 42.6647 10.5465Z" fill="#00274A"/>
</g>
<defs>
<clipPath id="clip0_941_4786">
<rect width="51" height="58" fill="white"/>
</clipPath>
</defs>
</svg>
